<svg width="345" height="79" viewBox="0 0 345 79" fill="none" xmlns="http://www.w3.org/2000/svg">
<g clip-path="url(#clip0_765_764)">
<path fill-rule="evenodd" clip-rule="evenodd" d="M38.649 28.0789C44.2618 28.6053 41.0894 20.3158 45.4819 19.6579C40.8453 30.4474 45.848 39.1316 48.8984 47.8158C45.726 49.5263 43.7737 41.2368 40.6013 42.9474C39.0151 46.5 43.4077 49.9211 43.4077 54.1316C32.6703 53.0789 29.7419 30.9737 35.2326 19C37.0628 21.3684 34.5005 28.2105 38.649 28.0789Z" fill="#C4C4C4"/>
<path fill-rule="evenodd" clip-rule="evenodd" d="M40.7215 20.4475C41.6976 21.6317 41.6976 25.5791 40.7215 26.7633C34.6207 28.2107 36.2069 19.5264 40.7215 20.4475Z" fill="#C4C4C4"/>
<path fill-rule="evenodd" clip-rule="evenodd" d="M13.2695 62.5534V61.8955C15.4658 53.0798 23.6409 47.9482 19.4923 36.6324C22.5427 37.9482 21.3226 43.7377 24.251 45.0534C29.9857 45.3166 28.0335 37.685 28.3995 32.4219C34.2563 45.5798 28.7656 66.8955 19.4923 69.0008C19.2483 64.5271 23.8849 62.0271 21.5666 57.685C16.1979 56.6324 18.0282 62.9482 13.2695 62.5534" fill="#D6D6D6"/>
<path fill-rule="evenodd" clip-rule="evenodd" d="M24.9837 36.6309C27.6681 37.0256 28.2782 40.4466 27.058 42.9466C24.7397 43.473 24.1296 42.1572 22.9095 41.4993C22.4214 38.7361 23.7636 37.6835 24.9837 36.6309Z" fill="#D6D6D6"/>
<path d="M63.1739 35.9746C62.8078 36.1062 62.1978 36.2378 61.3436 36.2378C58.1712 36.2378 56.707 33.343 56.707 29.5272C56.707 24.3957 59.2694 22.422 61.7097 22.422C62.5638 22.422 63.1739 22.5535 63.4179 22.8167L63.0519 25.0535C62.8078 24.922 62.4418 24.7904 61.9537 24.7904C60.6115 24.7904 59.3914 26.1062 59.3914 29.3957C59.3914 32.6851 60.4895 33.8693 61.9537 33.8693C62.3198 33.8693 62.8078 33.7378 63.0519 33.6062L63.1739 35.9746ZM66.1023 25.0535H63.906V22.6851H70.6168V25.1851H68.4206V36.3693H65.9802V25.0535H66.1023ZM78.5479 29.1325C78.5479 34.2641 76.9617 36.3693 74.6434 36.3693C71.837 36.3693 70.7389 33.0799 70.7389 29.3957C70.7389 25.7114 72.081 22.422 74.7654 22.422C77.6938 22.422 78.5479 26.1062 78.5479 29.1325ZM73.1792 29.3957C73.1792 32.422 73.6672 34.0009 74.6434 34.0009C75.6195 34.0009 75.9855 32.0272 75.9855 29.2641C75.9855 26.8957 75.6195 24.6588 74.5214 24.6588C73.6672 24.7904 73.1792 26.5009 73.1792 29.3957ZM87.333 31.5009C87.211 30.1851 87.211 28.4746 87.211 27.0272C86.967 28.4746 86.7229 30.1851 86.4789 31.2378L85.2588 35.9746H83.5505L82.5744 31.2378C82.3304 30.1851 81.9643 28.4746 81.8423 27.0272C81.8423 28.4746 81.7203 30.1851 81.5983 31.6325L81.3542 36.3693H79.28L80.1341 22.8167H82.6964L83.6726 27.6851C84.0386 29.3957 84.2826 30.9746 84.5267 32.422C84.6487 30.9746 85.0147 29.3957 85.2588 27.6851L86.2349 22.8167H88.9192L89.6513 36.3693H87.5771L87.333 31.5009ZM93.0678 33.0799L92.5797 36.2378H90.2614L92.9458 22.6851H95.7521L98.1924 36.2378H95.8741L95.3861 33.0799H93.0678ZM95.142 31.1062L94.654 28.2114C94.532 27.422 94.41 25.9746 94.2879 25.1851C94.1659 25.9746 93.9219 27.422 93.7999 28.2114L93.3118 31.1062H95.142ZM99.7787 25.0535H97.5824V22.6851H104.293V25.1851H102.097V36.3693H99.7787V25.0535ZM112.224 29.1325C112.224 34.2641 110.638 36.3693 108.32 36.3693C105.513 36.3693 104.415 33.0799 104.415 29.3957C104.415 25.7114 105.757 22.422 108.442 22.422C111.37 22.422 112.224 26.1062 112.224 29.1325ZM106.856 29.3957C106.856 32.422 107.344 34.0009 108.32 34.0009C109.296 34.0009 109.662 32.0272 109.662 29.2641C109.662 26.8957 109.296 24.6588 108.198 24.6588C107.344 24.7904 106.856 26.5009 106.856 29.3957ZM120.277 22.6851V36.2378H117.837V24.922H116.007V28.4746C116.007 31.6325 115.885 34.3957 114.299 35.7114C113.81 36.1062 113.322 36.3693 112.59 36.3693L112.102 34.1325C112.346 34.0009 112.712 33.8693 112.956 33.6062C113.688 32.8167 113.81 31.2378 113.81 28.6062V22.6851H120.277ZM129.429 29.1325C129.429 34.2641 127.842 36.3693 125.524 36.3693C122.718 36.3693 121.62 33.0799 121.62 29.3957C121.62 25.7114 122.962 22.422 125.646 22.422C128.574 22.422 129.429 26.1062 129.429 29.1325ZM124.06 29.3957C124.06 32.422 124.548 34.0009 125.524 34.0009C126.5 34.0009 126.866 32.0272 126.866 29.2641C126.866 26.8957 126.5 24.6588 125.402 24.6588C124.548 24.7904 124.06 26.5009 124.06 29.3957ZM136.383 22.6851V25.0535H133.089V36.3693H130.649V22.6851H136.383ZM139.556 22.6851V25.5799C139.556 28.0799 139.434 30.4483 139.312 31.8957C139.678 30.7114 140.288 28.8693 140.654 27.9483L142.484 22.6851H144.681V36.2378H142.606V33.2114C142.606 30.4483 142.728 28.4746 142.728 27.0272C142.484 28.2114 141.874 29.922 141.508 30.9746L139.678 36.1062H137.482V22.6851H139.556ZM148.707 22.6851V27.2904C148.707 28.343 149.073 29.1325 150.049 29.1325C150.415 29.1325 150.781 29.0009 151.025 28.8693V22.6851H153.344V36.5009H151.025V30.843H150.903C150.293 31.1062 149.805 31.3693 149.195 31.3693C147.121 31.3693 146.267 29.7904 146.267 27.5535V22.6851H148.707ZM160.421 30.3167H157.614V34.0009H160.787V36.3693H155.296V22.6851H160.665V25.0535H157.736V28.2114H160.543V30.3167H160.421ZM168.108 35.9746C167.742 36.1062 167.131 36.2378 166.277 36.2378C163.105 36.2378 161.641 33.343 161.641 29.5272C161.641 24.3957 164.203 22.422 166.643 22.422C167.497 22.422 168.108 22.5535 168.352 22.8167L167.986 25.0535C167.742 24.922 167.375 24.7904 166.887 24.7904C165.545 24.7904 164.325 26.1062 164.325 29.3957C164.325 32.6851 165.423 33.8693 166.887 33.8693C167.253 33.8693 167.742 33.7378 167.986 33.6062L168.108 35.9746ZM171.524 22.6851V28.6062H171.768L173.72 22.6851H176.283L173.476 29.0009C174.696 29.5272 175.184 30.843 175.551 32.422C175.795 33.7378 176.039 35.0535 176.405 36.2378H174.086C173.72 35.3167 173.598 34.1325 173.354 33.0799C172.988 31.5009 172.744 30.4483 171.768 30.4483H171.524V36.2378H169.206V22.6851H171.524ZM179.455 22.6851V25.5799C179.455 28.0799 179.333 30.4483 179.211 31.8957C179.577 30.7114 180.187 28.8693 180.553 27.9483L182.383 22.6851H184.58V36.2378H182.505V33.2114C182.505 30.4483 182.627 28.4746 182.627 27.0272C182.383 28.2114 181.773 29.922 181.407 30.9746L179.577 36.1062H177.381V22.6851H179.455ZM188.484 22.6851V25.5799C188.484 28.0799 188.362 30.4483 188.24 31.8957C188.606 30.7114 189.216 28.8693 189.582 27.9483L191.413 22.6851H193.609V36.2378H191.535V33.2114C191.535 30.4483 191.657 28.4746 191.657 27.0272C191.413 28.2114 190.803 29.922 190.436 30.9746L188.606 36.1062H186.41V22.6851H188.484ZM189.216 19.7904C189.216 20.5799 189.46 20.9746 190.07 20.9746C190.558 20.9746 190.803 20.5799 190.925 19.7904H192.389C192.145 21.5009 191.413 22.1588 190.07 22.1588C188.85 22.1588 187.874 21.6325 187.752 19.7904H189.216ZM60.2455 44.7904V62.5536H65.7362V44.7904H68.1765V62.5536H69.5187L69.3967 68.6062H67.5665L67.4444 64.5272H57.9272V44.7904H60.2455ZM79.28 55.1851H74.1553V62.5536H80.0121V64.5272H71.837V44.7904H79.646V46.7641H74.1553V53.2114H79.28V55.1851ZM84.6487 44.7904V53.2114H90.3834V44.7904H92.7017V64.5272H90.3834V55.3167H84.6487V64.5272H82.3304V44.7904H84.6487ZM98.1924 46.7641H94.41V44.7904H104.293V46.7641H100.511V64.5272H98.1924V46.7641ZM106.368 45.0535C107.344 44.7904 108.442 44.6588 109.784 44.6588C111.614 44.6588 113.322 45.0536 114.299 46.1062C115.275 47.0272 115.763 48.4746 115.763 50.1851C115.763 52.0272 115.275 53.2114 114.543 54.2641C113.444 55.7114 111.492 56.5009 109.662 56.5009H108.686V64.5272H106.368V45.0535ZM108.686 54.5272H109.662C111.98 54.5272 113.444 53.0799 113.444 50.3167C113.444 48.343 112.59 46.5009 110.028 46.5009C109.54 46.5009 109.052 46.5009 108.686 46.6325V54.5272ZM130.649 44.7904V46.7641H124.914V64.5272H122.596V44.7904H130.649ZM142.362 54.5272C142.362 61.8957 139.8 64.7904 136.383 64.7904C132.967 64.7904 130.649 61.2378 130.649 54.6588C130.649 48.0799 133.089 44.5272 136.627 44.5272C140.166 44.5272 142.362 48.2114 142.362 54.5272ZM133.089 54.6588C133.089 58.7378 133.943 62.8167 136.505 62.8167C139.068 62.8167 139.8 58.4746 139.8 54.6588C139.8 50.9746 139.068 46.6325 136.505 46.6325C133.943 46.5009 133.089 50.5799 133.089 54.6588ZM144.803 45.0535C145.779 44.7904 146.877 44.6588 148.219 44.6588C150.049 44.6588 151.757 45.0536 152.734 46.1062C153.71 47.0272 154.198 48.4746 154.198 50.1851C154.198 52.0272 153.71 53.2114 152.978 54.2641C151.879 55.7114 149.927 56.5009 148.097 56.5009H147.121V64.5272H144.803V45.0535ZM147.121 54.5272H148.097C150.415 54.5272 151.879 53.0799 151.879 50.3167C151.879 48.343 151.025 46.5009 148.463 46.5009C147.975 46.5009 147.487 46.5009 147.121 46.6325V54.5272ZM167.375 54.5272C167.375 61.8957 164.813 64.7904 161.397 64.7904C157.98 64.7904 155.662 61.2378 155.662 54.6588C155.662 48.0799 158.102 44.5272 161.641 44.5272C165.301 44.5272 167.375 48.2114 167.375 54.5272ZM158.224 54.6588C158.224 58.7378 159.078 62.8167 161.641 62.8167C164.203 62.8167 164.935 58.4746 164.935 54.6588C164.935 50.9746 164.203 46.6325 161.641 46.6325C159.078 46.5009 158.224 50.5799 158.224 54.6588ZM179.577 44.7904V62.5536H180.919L180.797 68.4746H178.967L178.845 64.3957H169.816L169.694 68.4746H167.864L167.742 62.5536H169.084C169.816 60.7114 170.426 59.0009 170.792 57.2904C171.28 54.7904 171.402 52.1588 171.402 49.2641V44.7904H179.577ZM173.476 49.6588C173.476 52.422 173.354 55.0536 172.866 57.5536C172.5 59.2641 172.012 60.9746 171.402 62.5536H177.259V46.7641H173.476V49.6588ZM185.922 58.6062L184.58 64.5272H182.261L186.898 44.7904H189.46L193.975 64.5272H191.657L190.314 58.6062H185.922ZM190.07 56.7641L188.972 51.7641C188.728 50.3167 188.362 48.7378 188.118 47.2904H187.996C187.752 48.7378 187.386 50.4483 187.142 51.7641L186.044 56.7641H190.07ZM329.413 51.7641H289.635C289.147 51.7641 288.537 52.0272 288.171 52.2904C287.927 52.422 287.683 52.6851 287.561 53.0799C287.439 53.343 287.317 53.6062 287.317 53.8693L286.829 55.4483L282.07 22.1588C281.948 21.5009 281.704 20.9746 281.216 20.5799C280.972 20.1851 280.606 19.922 280.24 19.7904C279.02 19.3957 277.678 20.3167 277.312 21.8957L271.821 46.1062L267.551 25.5799C267.184 24.5272 266.33 23.8693 265.354 24.0009C264.378 24.0009 263.402 24.6588 263.158 25.5799L257.911 51.7641H207.763C206.543 51.7641 205.444 52.8167 205.444 54.2641C205.444 55.7114 206.421 56.7641 207.763 56.7641H260.23C260.84 56.7641 261.45 56.7641 261.938 56.5009C262.426 56.2378 262.792 55.7114 263.036 55.1851L266.33 40.1851L269.991 55.1851C270.113 55.5799 270.357 55.9746 270.601 56.2378H270.723C270.845 56.2378 270.845 56.3693 270.845 56.3693C270.967 56.3693 270.967 56.5009 271.089 56.5009C271.211 56.5009 271.211 56.6325 271.333 56.6325C271.455 56.6325 271.699 56.7641 271.821 56.7641C272.187 56.7641 272.431 56.7641 272.797 56.6325C273.651 56.3693 274.139 55.5799 274.261 54.6588L278.654 38.343L283.291 65.9746C283.291 66.3693 283.413 66.7641 283.535 67.1588C283.901 67.8167 284.633 68.343 285.365 68.343C286.463 68.6062 287.317 68.0799 287.683 67.2904L291.222 56.7641H329.291C330.633 56.7641 331.609 55.7114 331.609 54.2641C331.731 52.9483 330.755 51.7641 329.413 51.7641Z" fill="#C4C4C4"/>
<path d="M214.229 46.7644H207.396V24.1328H217.524C223.503 24.1328 226.431 27.1591 226.431 31.7644C226.431 36.6328 223.747 39.6591 217.768 39.6591H214.351V46.7644H214.229ZM214.229 34.396H217.036C218.622 34.396 219.842 33.7381 219.842 31.7644C219.842 29.6591 217.646 29.396 216.182 29.396H214.229V34.396ZM234.24 46.7644H227.407V24.1328H237.29C244.245 24.1328 246.564 26.2381 246.564 30.5802C246.564 33.2118 245.465 35.317 243.025 36.1065C245.221 37.0275 246.564 37.5539 246.564 42.0275C246.564 45.317 246.686 45.9749 247.296 45.9749V46.6328H240.341C240.219 46.1065 239.975 44.6591 239.975 42.6854C239.975 39.7907 239.487 38.7381 236.314 38.7381H234.24V46.7644ZM234.24 33.8697H236.924C238.999 33.8697 240.219 33.3433 240.219 31.7644C240.219 30.1854 238.999 29.396 237.412 29.396H234.24V33.8697ZM248.516 24.1328H255.349V46.7644H248.516V24.1328Z" fill="#D6D6D6"/>
<path d="M306.839 24.1328V29.396H296.102V32.6854H305.131V38.0802H296.102V41.6328H307.206V46.896H289.025V24.1328H306.839ZM318.553 24.1328H308.914V33.0802H315.259V28.0802H320.017V33.0802H324.776V37.9486H320.017V42.9486H315.259V37.9486H308.914V46.896H318.309C325.264 46.896 329.9 43.6065 329.9 35.0539C329.9 27.5539 325.508 24.1328 318.553 24.1328ZM210.935 68.2118C210.691 68.3433 210.325 68.3433 209.959 68.3433C208.251 68.3433 207.396 66.896 207.396 64.7907C207.396 62.1591 208.739 61.1065 210.081 61.1065C210.569 61.1065 210.813 61.2381 210.935 61.2381L210.691 62.4223C210.569 62.2907 210.325 62.2907 210.081 62.2907C209.349 62.2907 208.739 62.9486 208.739 64.7907C208.739 66.5012 209.349 67.1591 210.081 67.1591C210.325 67.1591 210.569 67.1591 210.691 67.0275L210.935 68.2118ZM212.399 62.5539H211.179V61.2381H214.839V62.5539H213.619V68.4749H212.277V62.5539H212.399ZM219.11 64.6591C219.11 67.2907 218.256 68.4749 216.914 68.4749C215.45 68.4749 214.839 66.7644 214.839 64.7907C214.839 62.817 215.572 61.1065 217.036 61.1065C218.622 61.1065 219.11 63.0802 219.11 64.6591ZM216.182 64.7907C216.182 66.3697 216.426 67.2907 217.036 67.2907C217.524 67.2907 217.768 66.2381 217.768 64.7907C217.768 63.4749 217.646 62.4223 217.036 62.4223C216.548 62.2907 216.182 63.2118 216.182 64.7907ZM223.747 65.8433C223.747 65.1854 223.625 64.2644 223.747 63.4749C223.625 64.2644 223.503 65.1854 223.381 65.7118L222.77 68.2118H221.794L221.184 65.7118C221.062 65.1854 220.94 64.2644 220.818 63.4749C220.818 64.2644 220.818 65.1854 220.696 65.8433L220.574 68.3433H219.476L219.964 61.2381H221.306L221.794 63.8696C222.038 64.7907 222.16 65.5802 222.282 66.3696C222.404 65.5802 222.526 64.7907 222.648 63.8696L223.137 61.2381H224.479L224.845 68.3433H223.747V65.8433ZM226.797 66.7644L226.553 68.3433H225.333L226.797 61.2381H228.383L229.725 68.3433H228.505L228.261 66.7644H226.797ZM227.895 65.7118L227.651 64.2644C227.529 63.8697 227.529 63.0802 227.407 62.6854C227.285 63.2118 227.285 63.8697 227.163 64.2644L226.919 65.7118H227.895ZM230.335 62.5539H229.115V61.2381H232.776V62.5539H231.556V68.4749H230.213V62.5539H230.335ZM236.924 64.6591C236.924 67.2907 236.07 68.4749 234.728 68.4749C233.264 68.4749 232.654 66.7644 232.654 64.7907C232.654 62.817 233.386 61.1065 234.85 61.1065C236.436 61.1065 236.924 63.0802 236.924 64.6591ZM233.996 64.7907C233.996 66.3697 234.24 67.2907 234.85 67.2907C235.338 67.2907 235.582 66.2381 235.582 64.7907C235.582 63.4749 235.46 62.4223 234.85 62.4223C234.362 62.2907 233.996 63.2118 233.996 64.7907ZM241.195 61.2381V68.3433H239.853V62.4223H238.877V64.2644C238.877 65.9749 238.755 67.2907 237.9 68.0802C237.656 68.3433 237.29 68.4749 237.046 68.4749L236.802 67.2907C236.924 67.2907 237.168 67.1591 237.29 67.0275C237.656 66.6328 237.778 65.8433 237.778 64.396V61.1065H241.195V61.2381ZM246.076 64.6591C246.076 67.2907 245.221 68.4749 243.879 68.4749C242.415 68.4749 241.805 66.7644 241.805 64.7907C241.805 62.817 242.537 61.1065 244.001 61.1065C245.587 61.1065 246.076 63.0802 246.076 64.6591ZM243.147 64.7907C243.147 66.3697 243.391 67.2907 244.001 67.2907C244.489 67.2907 244.733 66.2381 244.733 64.7907C244.733 63.4749 244.611 62.4223 244.001 62.4223C243.391 62.2907 243.147 63.2118 243.147 64.7907ZM249.736 61.2381V62.4223H247.906V68.3433H246.564V61.2381H249.736ZM251.322 61.2381V62.817C251.322 64.1328 251.2 65.317 251.2 66.1065C251.444 65.4486 251.688 64.5275 251.932 64.0012L252.908 61.2381H254.129V68.3433H253.03V66.7644C253.03 65.317 253.03 64.2644 253.152 63.6065C253.03 64.2644 252.664 65.0539 252.542 65.7118L251.566 68.4749H250.346V61.3697H251.322V61.2381ZM256.203 61.2381V63.6065C256.203 64.1328 256.447 64.6591 256.935 64.6591C257.179 64.6591 257.301 64.6591 257.423 64.5275V61.2381H258.643V68.3433H257.423V65.4486C257.179 65.5802 256.813 65.7118 256.447 65.7118C255.349 65.7118 254.861 64.9223 254.861 63.7381V61.2381H256.203ZM262.426 65.1854H260.961V67.1591H262.67V68.3433H259.619V61.2381H262.548V62.4223H260.961V64.1328H262.426V65.1854ZM266.574 68.2118C266.33 68.3433 265.964 68.3433 265.598 68.3433C263.89 68.3433 263.158 66.896 263.158 64.7907C263.158 62.1591 264.5 61.1065 265.842 61.1065C266.33 61.1065 266.574 61.2381 266.696 61.2381L266.452 62.4223C266.33 62.2907 266.086 62.2907 265.842 62.2907C265.11 62.2907 264.5 62.9486 264.5 64.7907C264.5 66.5012 265.11 67.1591 265.842 67.1591C266.086 67.1591 266.33 67.1591 266.452 67.0275L266.574 68.2118ZM268.282 61.2381V64.396H268.404L269.503 61.2381H270.967L269.381 64.5275C270.113 64.7907 270.235 65.4486 270.479 66.3696C270.601 67.0275 270.723 67.6854 270.967 68.3433H269.625C269.503 67.817 269.381 67.2907 269.259 66.6328C269.137 65.8433 268.893 65.317 268.404 65.317H268.282V68.3433H267.062V61.2381H268.282ZM272.431 61.2381V62.817C272.431 64.1328 272.309 65.317 272.309 66.1065C272.553 65.4486 272.797 64.5275 273.041 64.0012L274.017 61.2381H275.237V68.3433H274.139V66.7644C274.139 65.317 274.139 64.2644 274.261 63.6065C274.139 64.2644 273.773 65.0539 273.651 65.7118L272.675 68.4749H271.455V61.3697H272.431V61.2381ZM278.898 65.1854H277.434V67.1591H279.142V68.3433H276.091V61.2381H279.02V62.4223H277.434V64.1328H278.898V65.1854ZM296.59 61.2381V64.396H296.712L297.81 61.2381H299.274L297.688 64.5275C298.42 64.7907 298.542 65.4486 298.786 66.3696C298.908 67.0275 299.03 67.6854 299.274 68.3433H297.932C297.81 67.817 297.688 67.2907 297.566 66.6328C297.444 65.8433 297.2 65.317 296.712 65.317H296.59V68.3433H295.37V61.2381H296.59ZM303.911 61.2381V68.3433H302.569V62.4223H301.593V64.2644C301.593 65.8433 301.471 67.2907 300.617 68.0802C300.373 68.3433 300.007 68.4749 299.763 68.4749L299.519 67.2907C299.641 67.2907 299.885 67.1591 300.007 67.0275C300.373 66.6328 300.495 65.8433 300.495 64.396V61.1065H303.911V61.2381ZM306.473 61.2381V62.817C306.473 64.1328 306.351 65.317 306.351 66.1065C306.595 65.4486 306.839 64.5275 307.084 64.0012L308.06 61.2381H309.28V68.3433H308.182V66.7644C308.182 65.317 308.182 64.2644 308.304 63.6065C308.182 64.2644 307.816 65.0539 307.694 65.7118L306.717 68.4749H305.497V61.3697H306.473V61.2381ZM311.842 61.2381V64.1328H313.184V61.2381H314.526V68.3433H313.184V65.317H311.842V68.3433H310.5V61.2381H311.842ZM316.967 61.2381V62.817C316.967 64.1328 316.845 65.317 316.845 66.1065C317.089 65.4486 317.333 64.5275 317.577 64.0012L318.553 61.2381H319.773V68.3433H318.675V66.7644C318.675 65.317 318.675 64.2644 318.797 63.6065C318.675 64.2644 318.309 65.0539 318.187 65.7118L317.211 68.4749H315.991V61.3697H316.967V61.2381ZM322.335 61.2381V64.396H322.458L323.556 61.2381H325.02L323.434 64.5275C324.166 64.7907 324.288 65.4486 324.532 66.3696C324.654 67.0275 324.776 67.6854 325.02 68.3433H323.678C323.556 67.817 323.434 67.2907 323.312 66.6328C323.19 65.8433 322.946 65.317 322.458 65.317H322.335V68.3433H321.115V61.2381H322.335ZM326.85 61.2381V62.817C326.85 64.1328 326.728 65.317 326.728 66.1065C326.972 65.4486 327.216 64.5275 327.46 64.0012L328.436 61.2381H329.656V68.3433H328.558V66.7644C328.558 65.317 328.558 64.2644 328.68 63.6065C328.558 64.2644 328.192 65.0539 328.07 65.7118L327.094 68.4749H325.874V61.3697H326.85V61.2381Z" fill="#C4C4C4"/>
</g>
<defs>
<clipPath id="clip0_765_764">
<rect width="318.462" height="50" fill="white" transform="translate(13.2695 19)"/>
</clipPath>
</defs>
</svg>
