<svg width="149" height="79" viewBox="0 0 149 79" fill="none" xmlns="http://www.w3.org/2000/svg">
<g clip-path="url(#clip0_765_752)">
<path fill-rule="evenodd" clip-rule="evenodd" d="M108.492 47.5086C108.492 47.5086 104.089 22.7835 80.2098 9.16016V13.3188C82.2742 15.0839 84.5167 17.1025 86.0711 18.846C92.3988 25.9685 95.6272 40.7354 95.6272 42.4155H77.6165V37.2955H72.4746V47.5086H108.492Z" fill="#C4C4C4"/>
<path fill-rule="evenodd" clip-rule="evenodd" d="M41.6088 9.16016C41.6088 9.16016 46.0176 33.8839 69.891 47.5086V43.3487C67.8226 41.5876 65.5801 39.5703 64.0271 37.8254C57.6993 30.7016 54.4709 15.9348 54.4709 14.2546H72.4817V19.376H77.6276V9.16016H41.6074H41.6088Z" fill="#C4C4C4"/>
<mask id="mask0_765_752" style="mask-type:alpha" maskUnits="userSpaceOnUse" x="13" y="55" width="17" height="15">
<path fill-rule="evenodd" clip-rule="evenodd" d="M13.3027 55.2031H29.6463V69.8095H13.3027V55.2031Z" fill="white"/>
</mask>
<g mask="url(#mask0_765_752)">
<path fill-rule="evenodd" clip-rule="evenodd" d="M16.9881 60.9421H27.2827V64.0462H16.9881V69.8095H13.3027V55.2031H29.6463V58.314H16.9868V60.9421H16.9881Z" fill="#C4C4C4"/>
</g>
<mask id="mask1_765_752" style="mask-type:alpha" maskUnits="userSpaceOnUse" x="13" y="9" width="123" height="61">
<path fill-rule="evenodd" clip-rule="evenodd" d="M13.3027 69.8079H135.628V9.16016H13.3027V69.8079Z" fill="white"/>
</mask>
<g mask="url(#mask1_765_752)">
<path fill-rule="evenodd" clip-rule="evenodd" d="M35.3916 66.7025H45.795V58.3125H35.3916V66.6998V66.7025ZM31.709 69.8093H49.4763V55.203H31.709V69.8093ZM55.732 62.6734H66.1354V58.3314H55.732V62.6734ZM55.732 69.8093H52.0466V55.203H69.8221V65.799H68.095L69.8004 69.8093H66.0511L64.2016 65.799H55.732V69.8093ZM86.5396 66.7012V63.6941H72.4508V55.2016H90.2223V58.3138H76.1362V60.5846H90.2223V69.808H72.4508V66.7012H86.5396ZM92.7925 69.8093H96.4779V55.203H92.7925V69.8093ZM98.5178 55.203H117.46V58.3314H109.83V69.8093H106.144V58.33H98.5178V55.2016V55.203ZM119.544 64.0609H135.626V60.9487H119.544V64.0609ZM119.544 69.8093H135.626V66.7025H119.544V69.8093ZM119.544 58.3125H135.626V55.203H119.544V58.3138V58.3125ZM66.9962 29.7173H83.0773V26.6024H66.9962V29.7173ZM66.9962 35.463H83.0773V32.3508H66.9962V35.463ZM66.9962 23.9675H83.0773V20.8594H66.9962V23.9675Z" fill="#C4C4C4"/>
</g>
</g>
<defs>
<clipPath id="clip0_765_752">
<rect width="122.393" height="61.2472" fill="white" transform="translate(13.3027 8.87695)"/>
</clipPath>
</defs>
</svg>
