<svg width="113" height="110" viewBox="0 0 113 110" fill="none" xmlns="http://www.w3.org/2000/svg">
<g clip-path="url(#clip0_765_819)">
<path d="M79.7171 60.2985V12.7656L56.4219 36.5321L79.7171 60.2985Z" fill="#D3D3D3"/>
<path d="M26.9082 8.0293V64.7154H82.4705V8.0293H26.9082ZM29.584 10.8395H43.6713L29.584 25.2118V10.8395ZM29.584 29.1461L47.5276 10.8395H60.5918L29.584 42.3943V29.1461ZM29.584 46.3286L64.4481 10.8395H77.8272L29.584 59.9782V46.3286ZM79.716 60.2994L56.4207 36.5329L79.716 12.7665V60.2994ZM31.5515 61.9855L37.6114 55.803L43.6713 61.9855H31.5515ZM47.5276 61.9855L39.5789 53.7957L46.111 47.1315L60.5918 61.9052H47.5276V61.9855ZM64.4481 61.9855L47.9998 45.2045L54.5319 38.5402L77.5124 61.9855H64.4481Z" fill="#C4C4C4"/>
<path d="M7.23451 83.8242V89.2038H11.4056L15.0258 83.8242H18.7247L14.1601 90.5687L19.0395 98.3571H15.2619L11.4843 92.1746H7.23451V98.3571H4.00781V83.8242H7.23451Z" fill="#C4C4C4"/>
<path d="M31.789 83.8242L37.8489 98.3571H34.4648L33.5204 96.1089H24.706L23.7616 98.3571H20.2988L26.5161 83.8242H31.789ZM25.8865 93.2987H32.2612L29.6641 86.7147H28.5623L25.8865 93.2987Z" fill="#C4C4C4"/>
<path d="M51.5418 88.8833C50.44 87.2774 49.0234 86.4745 46.7411 86.4745C43.9079 86.4745 42.0191 88.3212 42.0191 91.2117C42.0191 94.0219 43.9866 95.949 46.7411 95.949C49.0234 95.949 50.44 95.0657 51.5418 93.5402L54.0602 94.9854C52.5649 97.5548 50.2039 98.8395 46.8198 98.8395C42.2552 98.8395 38.8711 95.949 38.8711 91.2117C38.8711 86.4745 42.3339 83.584 46.8198 83.584C50.1252 83.584 52.5649 84.949 54.0602 87.438L51.5418 88.8833Z" fill="#C4C4C4"/>
<path d="M59.5705 83.8242V89.2038H63.7416L67.3618 83.8242H71.0607L66.4961 90.5687L71.3755 98.3571H67.5979L63.8203 92.1746H59.5705V98.3571H56.3438V83.8242H59.5705Z" fill="#C4C4C4"/>
<path d="M84.125 83.8242L90.1849 98.3571H86.8008L85.8564 96.1089H77.042L76.0976 98.3571H72.6348L78.8521 83.8242H84.125ZM78.3012 93.2987H84.6759L82.0788 86.7147H80.977L78.3012 93.2987Z" fill="#C4C4C4"/>
<path d="M107.263 83.8242V95.3863H108.915V101.087H106.161L105.925 98.2768H94.9066L94.6705 101.087H91.916V95.3863H93.7261L96.0084 83.8242H107.263ZM97.0315 95.4666H104.036V86.7147H98.5268L97.0315 95.4666Z" fill="#C4C4C4"/>
</g>
<defs>
<clipPath id="clip0_765_819">
<rect width="104.986" height="93.9416" fill="white" transform="translate(4.00781 8.0293)"/>
</clipPath>
</defs>
</svg>
