<svg width="154" height="69" viewBox="0 0 154 69" fill="none" xmlns="http://www.w3.org/2000/svg">
<path d="M69.5401 42.5547C67.694 42.5547 66.2582 43.1773 65.1301 44.2151L64.9249 42.866H62.5661V59.7818H65.4377V54.1778C66.4633 55.1118 67.8991 55.6307 69.5401 55.6307C73.4373 55.6307 76.2063 52.9325 76.2063 49.0927C76.2063 45.2529 73.4373 42.5547 69.5401 42.5547ZM69.2324 52.8287C66.9761 52.8287 65.3352 51.272 65.3352 49.0927C65.3352 46.9133 66.9761 45.3567 69.2324 45.3567C71.4887 45.3567 73.1296 46.9133 73.1296 49.0927C73.1296 51.3758 71.5912 52.8287 69.2324 52.8287ZM81.5394 50.8569V42.866H78.6677V55.3193H81.0266L87.7954 47.3285V55.3193H90.667V42.866H88.3082L81.5394 50.8569ZM27.3887 38.4036H15.492V40.1678C15.492 46.7058 14.6715 50.5456 14.0561 52.5173H11.4922V58.6402H14.3638V55.3193H27.081V58.6402H29.9526V52.5173H27.3887V38.4036ZM24.2094 52.5173H17.2354C17.8508 50.2342 18.5687 46.602 18.5687 42.2433V41.2056H24.2094V52.5173ZM108.615 52.7249H104.102V42.866H101.231V52.7249H96.7179V42.866H93.8463V55.3193H111.384V42.866H108.512V52.7249H108.615ZM129.947 42.866V55.3193H132.818V45.5642H138.972V55.4231H141.844V42.9698H129.947V42.866ZM42.2596 49.0927C43.3877 48.5738 44.0031 47.536 44.0031 46.1869C44.0031 44.2151 42.5673 42.866 40.5161 42.866H32.414V55.3193H40.8238C42.875 55.3193 44.3108 53.9702 44.3108 51.9985C44.3108 50.6493 43.4903 49.5078 42.2596 49.0927ZM35.2857 45.4605H39.5931C40.4136 45.4605 40.9264 45.9793 40.9264 46.7058C40.9264 47.4322 40.4136 47.9511 39.5931 47.9511H35.2857V45.4605ZM39.9008 52.8287H35.2857V50.338H39.9008C40.7212 50.338 41.234 50.8569 41.234 51.5833C41.234 52.3098 40.7212 52.8287 39.9008 52.8287ZM120.819 42.5547C116.819 42.5547 113.948 45.2529 113.948 49.0927C113.948 52.9325 116.819 55.6307 120.819 55.6307C124.819 55.6307 127.69 52.9325 127.69 49.0927C127.69 45.2529 124.819 42.5547 120.819 42.5547ZM120.819 52.8287C118.563 52.8287 116.922 51.272 116.922 49.0927C116.922 46.9133 118.563 45.3567 120.819 45.3567C123.075 45.3567 124.716 46.9133 124.716 49.0927C124.716 51.3758 123.075 52.8287 120.819 52.8287ZM53.2333 42.5547C49.2336 42.5547 46.4645 45.2529 46.4645 49.0927C46.4645 52.9325 49.3361 55.6307 53.4384 55.6307C56.5152 55.6307 58.874 54.1778 59.8996 51.7909H56.5152C55.7973 52.5173 54.7717 52.9325 53.4384 52.9325C51.4898 52.9325 49.9515 51.7909 49.5412 50.1305H60.1047C60.1047 49.8191 60.2073 49.404 60.2073 49.0927V48.47C59.6945 45.0453 56.9254 42.5547 53.2333 42.5547ZM49.4387 47.8473C49.9515 46.2907 51.2847 45.3567 53.1308 45.3567C54.9768 45.3567 56.4126 46.3945 56.9254 47.8473H49.4387ZM115.999 11.6289H104.717V28.5447H115.896V11.6289H115.999ZM99.0768 15.9876H87.7954V32.9033H98.9742V15.9876H99.0768ZM82.2573 11.6289H71.0784V28.5447H82.2573V11.6289ZM65.4377 15.9876H54.1563V32.9033H65.3352V15.9876H65.4377ZM48.5157 11.6289H37.2343V28.5447H48.4131V11.6289H48.5157Z" fill="#C4C4C4"/>
</svg>
