<svg width="304" height="72" viewBox="0 0 304 72" fill="none" xmlns="http://www.w3.org/2000/svg">
<circle cx="36" cy="36" r="35" stroke="#2D354F" stroke-width="2"/>
<path d="M46.5 33.4019C48.5 34.5566 48.5 37.4434 46.5 38.5981L33 46.3923C31 47.547 28.5 46.1036 28.5 43.7942V28.2058C28.5 25.8964 31 24.453 33 25.6077L46.5 33.4019Z" fill="#2D354F"/>
<path d="M97.224 28V15.238H99.762V20.944H105.612V15.238H108.132V28H105.612V23.302H99.762V28H97.224ZM114.759 28.216C113.319 28.216 112.167 27.754 111.303 26.83C110.439 25.894 110.007 24.64 110.007 23.068C110.007 21.508 110.433 20.266 111.285 19.342C112.137 18.406 113.259 17.938 114.651 17.938C115.935 17.938 116.943 18.298 117.675 19.018V18.172H120.123V28H117.711V27.046C117.063 27.826 116.079 28.216 114.759 28.216ZM115.299 25.984C116.427 25.984 117.231 25.552 117.711 24.688V21.43C117.471 21.034 117.123 20.728 116.667 20.512C116.211 20.284 115.737 20.17 115.245 20.17C114.441 20.17 113.793 20.428 113.301 20.944C112.809 21.448 112.563 22.156 112.563 23.068C112.563 23.968 112.809 24.682 113.301 25.21C113.793 25.726 114.459 25.984 115.299 25.984ZM127.182 28.198C125.526 28.198 124.23 27.736 123.294 26.812C122.358 25.888 121.89 24.64 121.89 23.068C121.89 21.556 122.364 20.332 123.312 19.396C124.26 18.448 125.544 17.974 127.164 17.974C128.088 17.974 128.922 18.148 129.666 18.496C130.41 18.844 131.004 19.324 131.448 19.936L129.72 21.484C129.468 21.112 129.126 20.812 128.694 20.584C128.262 20.356 127.794 20.242 127.29 20.242C126.426 20.242 125.73 20.5 125.202 21.016C124.686 21.52 124.428 22.198 124.428 23.05C124.428 23.926 124.686 24.628 125.202 25.156C125.718 25.672 126.408 25.93 127.272 25.93C127.812 25.93 128.304 25.816 128.748 25.588C129.192 25.348 129.546 25.048 129.81 24.688L131.502 26.236C130.53 27.544 129.09 28.198 127.182 28.198ZM146.85 18.118H148.11V28H145.806V22.798L142.944 26.488H142.098L139.236 22.798V28H136.932V18.118H138.192L142.53 23.608L146.85 18.118ZM155.38 28.216C153.748 28.216 152.434 27.754 151.438 26.83C150.454 25.894 149.962 24.64 149.962 23.068C149.962 21.52 150.46 20.284 151.456 19.36C152.452 18.424 153.76 17.956 155.38 17.956C157 17.956 158.302 18.424 159.286 19.36C160.27 20.284 160.762 21.52 160.762 23.068C160.762 24.64 160.27 25.894 159.286 26.83C158.302 27.754 157 28.216 155.38 28.216ZM155.38 25.948C156.22 25.948 156.898 25.684 157.414 25.156C157.942 24.628 158.206 23.932 158.206 23.068C158.206 22.216 157.942 21.532 157.414 21.016C156.898 20.488 156.22 20.224 155.38 20.224C154.528 20.224 153.838 20.488 153.31 21.016C152.794 21.532 152.536 22.216 152.536 23.068C152.536 23.932 152.794 24.628 153.31 25.156C153.838 25.684 154.528 25.948 155.38 25.948ZM177.548 28H174.398L170.51 23.68V28H168.044V23.644L164.012 28H161.024L165.416 23.302L161.114 18.172H164.156L168.044 22.906V18.172H170.51V22.978L174.506 18.172H177.44L173.12 23.194L177.548 28ZM185.768 18.172H188.252V28H185.768V24.472H181.34V28H178.856V18.172H181.34V22.384H185.768V18.172ZM195.511 28.216C193.879 28.216 192.565 27.754 191.569 26.83C190.585 25.894 190.093 24.64 190.093 23.068C190.093 21.52 190.591 20.284 191.587 19.36C192.583 18.424 193.891 17.956 195.511 17.956C197.131 17.956 198.433 18.424 199.417 19.36C200.401 20.284 200.893 21.52 200.893 23.068C200.893 24.64 200.401 25.894 199.417 26.83C198.433 27.754 197.131 28.216 195.511 28.216ZM195.511 25.948C196.351 25.948 197.029 25.684 197.545 25.156C198.073 24.628 198.337 23.932 198.337 23.068C198.337 22.216 198.073 21.532 197.545 21.016C197.029 20.488 196.351 20.224 195.511 20.224C194.659 20.224 193.969 20.488 193.441 21.016C192.925 21.532 192.667 22.216 192.667 23.068C192.667 23.932 192.925 24.628 193.441 25.156C193.969 25.684 194.659 25.948 195.511 25.948ZM213.346 18.172H215.992L211.96 28.108C211.672 28.84 211.348 29.44 210.988 29.908C210.628 30.376 210.244 30.712 209.836 30.916C209.428 31.132 209.05 31.276 208.702 31.348C208.366 31.42 207.97 31.456 207.514 31.456C206.878 31.456 206.344 31.384 205.912 31.24V29.098C206.44 29.266 206.914 29.35 207.334 29.35C208.354 29.35 209.092 28.906 209.548 28.018L205.138 18.172H207.91L210.7 25.03L213.346 18.172ZM221.489 28.198C219.833 28.198 218.537 27.736 217.601 26.812C216.665 25.888 216.197 24.64 216.197 23.068C216.197 21.556 216.671 20.332 217.619 19.396C218.567 18.448 219.851 17.974 221.471 17.974C222.395 17.974 223.229 18.148 223.973 18.496C224.717 18.844 225.311 19.324 225.755 19.936L224.027 21.484C223.775 21.112 223.433 20.812 223.001 20.584C222.569 20.356 222.101 20.242 221.597 20.242C220.733 20.242 220.037 20.5 219.509 21.016C218.993 21.52 218.735 22.198 218.735 23.05C218.735 23.926 218.993 24.628 219.509 25.156C220.025 25.672 220.715 25.93 221.579 25.93C222.119 25.93 222.611 25.816 223.055 25.588C223.499 25.348 223.853 25.048 224.117 24.688L225.809 26.236C224.837 27.544 223.397 28.198 221.489 28.198ZM227.621 28.054C227.141 28.054 226.781 28.036 226.541 28V25.84H227.081C227.681 25.84 228.095 25.612 228.323 25.156C228.551 24.7 228.665 24.016 228.665 23.104V18.172H236.891V28H234.425V20.404H231.059V23.662C231.059 25.246 230.771 26.374 230.195 27.046C229.619 27.718 228.761 28.054 227.621 28.054ZM239.29 28V18.172H241.774V20.728H244.096C246.892 20.728 248.29 21.922 248.29 24.31C248.29 25.57 247.936 26.5 247.228 27.1C246.52 27.7 245.44 28 243.988 28H239.29ZM249.622 28V18.172H252.124V28H249.622ZM241.72 25.948H243.862C245.098 25.948 245.716 25.414 245.716 24.346C245.716 23.29 245.122 22.762 243.934 22.762H241.72V25.948ZM254.512 28V18.172H256.996V25.768H260.632V18.172H263.098V25.768H266.734V18.172H269.218V28H254.512ZM275.81 28.216C274.37 28.216 273.218 27.754 272.354 26.83C271.49 25.894 271.058 24.64 271.058 23.068C271.058 21.508 271.484 20.266 272.336 19.342C273.188 18.406 274.31 17.938 275.702 17.938C276.986 17.938 277.994 18.298 278.726 19.018V18.172H281.174V28H278.762V27.046C278.114 27.826 277.13 28.216 275.81 28.216ZM276.35 25.984C277.478 25.984 278.282 25.552 278.762 24.688V21.43C278.522 21.034 278.174 20.728 277.718 20.512C277.262 20.284 276.788 20.17 276.296 20.17C275.492 20.17 274.844 20.428 274.352 20.944C273.86 21.448 273.614 22.156 273.614 23.068C273.614 23.968 273.86 24.682 274.352 25.21C274.844 25.726 275.51 25.984 276.35 25.984ZM291.275 18.172V20.404H288.197V28H285.731V20.404H282.653V18.172H291.275ZM292.815 28V18.172H295.299V20.728H297.621C300.417 20.728 301.815 21.922 301.815 24.31C301.815 25.57 301.461 26.5 300.753 27.1C300.045 27.7 298.965 28 297.513 28H292.815ZM295.245 25.948H297.387C298.623 25.948 299.241 25.414 299.241 24.346C299.241 23.29 298.647 22.762 297.459 22.762H295.245V25.948Z" fill="#2D354F"/>
<line x1="97" y1="51" x2="97" y2="61" stroke="#2D354F" stroke-width="2" stroke-linecap="round"/>
<line x1="106" y1="51" x2="106" y2="61" stroke="#2D354F" stroke-width="2" stroke-linecap="round"/>
<line x1="112" y1="51" x2="112" y2="61" stroke="#2D354F" stroke-width="2" stroke-linecap="round"/>
<line x1="127" y1="51" x2="127" y2="61" stroke="#2D354F" stroke-width="2" stroke-linecap="round"/>
<path d="M115 57L115 62" stroke="#2D354F" stroke-width="2" stroke-linecap="round"/>
<path d="M121 57L121 62" stroke="#2D354F" stroke-width="2" stroke-linecap="round"/>
<path d="M133 57L133 62" stroke="#2D354F" stroke-width="2" stroke-linecap="round"/>
<path d="M118 56L118 61" stroke="#2D354F" stroke-width="2" stroke-linecap="round"/>
<path d="M124 56L124 61" stroke="#2D354F" stroke-width="2" stroke-linecap="round"/>
<path d="M130 56L130 61" stroke="#2D354F" stroke-width="2" stroke-linecap="round"/>
<line x1="160" y1="51" x2="160" y2="61" stroke="#2D354F" stroke-width="2" stroke-linecap="round"/>
<path d="M148 57L148 62" stroke="#2D354F" stroke-width="2" stroke-linecap="round"/>
<path d="M154 57L154 62" stroke="#2D354F" stroke-width="2" stroke-linecap="round"/>
<path d="M166 57L166 62" stroke="#2D354F" stroke-width="2" stroke-linecap="round"/>
<path d="M181 57L181 62" stroke="#2D354F" stroke-width="2" stroke-linecap="round"/>
<path d="M172 57L172 62" stroke="#2D354F" stroke-width="2" stroke-linecap="round"/>
<path d="M169 60L169 62" stroke="#2D354F" stroke-width="2" stroke-linecap="round"/>
<path d="M175 60L175 62" stroke="#2D354F" stroke-width="2" stroke-linecap="round"/>
<path d="M178 60L178 62" stroke="#2D354F" stroke-width="2" stroke-linecap="round"/>
<path d="M151 56L151 61" stroke="#2D354F" stroke-width="2" stroke-linecap="round"/>
<path d="M157 56L157 61" stroke="#2D354F" stroke-width="2" stroke-linecap="round"/>
<path d="M163 56L163 61" stroke="#2D354F" stroke-width="2" stroke-linecap="round"/>
<line x1="226" y1="51" x2="226" y2="61" stroke="#2D354F" stroke-width="2" stroke-linecap="round"/>
<path d="M232 57L232 62" stroke="#2D354F" stroke-width="2" stroke-linecap="round"/>
<path d="M247 57L247 62" stroke="#2D354F" stroke-width="2" stroke-linecap="round"/>
<path d="M238 57L238 62" stroke="#2D354F" stroke-width="2" stroke-linecap="round"/>
<path d="M235 60L235 62" stroke="#2D354F" stroke-width="2" stroke-linecap="round"/>
<path d="M241 60L241 62" stroke="#2D354F" stroke-width="2" stroke-linecap="round"/>
<path d="M244 60L244 62" stroke="#2D354F" stroke-width="2" stroke-linecap="round"/>
<path d="M259 57L259 62" stroke="#2D354F" stroke-width="2" stroke-linecap="round"/>
<path d="M283 57L283 62" stroke="#2D354F" stroke-width="2" stroke-linecap="round"/>
<path d="M262 55L262 61" stroke="#2D354F" stroke-width="2" stroke-linecap="round"/>
<path d="M280 55L280 61" stroke="#2D354F" stroke-width="2" stroke-linecap="round"/>
<path d="M265 55L265 61" stroke="#2D354F" stroke-width="2" stroke-linecap="round"/>
<path d="M277 55L277 61" stroke="#2D354F" stroke-width="2" stroke-linecap="round"/>
<path d="M268 54L268 62" stroke="#2D354F" stroke-width="2" stroke-linecap="round"/>
<path d="M274 54L274 62" stroke="#2D354F" stroke-width="2" stroke-linecap="round"/>
<path d="M271 52L271 61" stroke="#2D354F" stroke-width="2" stroke-linecap="round"/>
<path d="M250 57L250 62" stroke="#2D354F" stroke-width="2" stroke-linecap="round"/>
<path d="M253 60L253 62" stroke="#2D354F" stroke-width="2" stroke-linecap="round"/>
<path d="M256 60L256 62" stroke="#2D354F" stroke-width="2" stroke-linecap="round"/>
<path d="M229 56L229 61" stroke="#2D354F" stroke-width="2" stroke-linecap="round"/>
<line x1="193" y1="51" x2="193" y2="61" stroke="#2D354F" stroke-width="2" stroke-linecap="round"/>
<path d="M187 57L187 62" stroke="#2D354F" stroke-width="2" stroke-linecap="round"/>
<path d="M199 57L199 62" stroke="#2D354F" stroke-width="2" stroke-linecap="round"/>
<path d="M184 58L184 61" stroke="#2D354F" stroke-width="2" stroke-linecap="round"/>
<path d="M190 56L190 61" stroke="#2D354F" stroke-width="2" stroke-linecap="round"/>
<path d="M196 56L196 61" stroke="#2D354F" stroke-width="2" stroke-linecap="round"/>
<path d="M109 45L109 61" stroke="#2D354F" stroke-width="2" stroke-linecap="round"/>
<path d="M100 46L100 61" stroke="#2D354F" stroke-width="2" stroke-linecap="round"/>
<path d="M103 48L103 61" stroke="#2D354F" stroke-width="2" stroke-linecap="round"/>
<line x1="139" y1="51" x2="139" y2="61" stroke="#2D354F" stroke-width="2" stroke-linecap="round"/>
<line x1="145" y1="51" x2="145" y2="61" stroke="#2D354F" stroke-width="2" stroke-linecap="round"/>
<path d="M142 45L142 61" stroke="#2D354F" stroke-width="2" stroke-linecap="round"/>
<path d="M136 48L136 61" stroke="#2D354F" stroke-width="2" stroke-linecap="round"/>
<line x1="208" y1="51" x2="208" y2="61" stroke="#2D354F" stroke-width="2" stroke-linecap="round"/>
<path d="M202 57L202 62" stroke="#2D354F" stroke-width="2" stroke-linecap="round"/>
<path d="M214 57L214 62" stroke="#2D354F" stroke-width="2" stroke-linecap="round"/>
<path d="M205 56L205 61" stroke="#2D354F" stroke-width="2" stroke-linecap="round"/>
<path d="M211 56L211 61" stroke="#2D354F" stroke-width="2" stroke-linecap="round"/>
<line x1="220" y1="51" x2="220" y2="61" stroke="#2D354F" stroke-width="2" stroke-linecap="round"/>
<path d="M223 45L223 61" stroke="#2D354F" stroke-width="2" stroke-linecap="round"/>
<path d="M217 48L217 61" stroke="#2D354F" stroke-width="2" stroke-linecap="round"/>
</svg>
