<svg width="301" height="47" viewBox="0 0 301 47" fill="none" xmlns="http://www.w3.org/2000/svg">
<circle cx="23.5" cy="23.5" r="23" stroke="#2D354F"/>
<path d="M30 21.7679C31.3333 22.5377 31.3333 24.4623 30 25.2321L21.75 29.9952C20.4167 30.765 18.75 29.8027 18.75 28.2631V18.7369C18.75 17.1973 20.4167 16.235 21.75 17.0048L30 21.7679Z" fill="#2D354F"/>
<line x1="64" y1="23" x2="64" y2="33" stroke="#2D354F" stroke-width="2" stroke-linecap="round"/>
<line x1="73" y1="23" x2="73" y2="33" stroke="#2D354F" stroke-width="2" stroke-linecap="round"/>
<line x1="79" y1="23" x2="79" y2="33" stroke="#2D354F" stroke-width="2" stroke-linecap="round"/>
<line x1="94" y1="23" x2="94" y2="33" stroke="#2D354F" stroke-width="2" stroke-linecap="round"/>
<path d="M82 29L82 34" stroke="#2D354F" stroke-width="2" stroke-linecap="round"/>
<path d="M88 29L88 34" stroke="#2D354F" stroke-width="2" stroke-linecap="round"/>
<path d="M100 29L100 34" stroke="#2D354F" stroke-width="2" stroke-linecap="round"/>
<path d="M85 28L85 33" stroke="#2D354F" stroke-width="2" stroke-linecap="round"/>
<path d="M91 28L91 33" stroke="#2D354F" stroke-width="2" stroke-linecap="round"/>
<path d="M97 28L97 33" stroke="#2D354F" stroke-width="2" stroke-linecap="round"/>
<line x1="127" y1="23" x2="127" y2="33" stroke="#2D354F" stroke-width="2" stroke-linecap="round"/>
<path d="M115 29L115 34" stroke="#2D354F" stroke-width="2" stroke-linecap="round"/>
<path d="M121 29L121 34" stroke="#2D354F" stroke-width="2" stroke-linecap="round"/>
<path d="M133 29L133 34" stroke="#2D354F" stroke-width="2" stroke-linecap="round"/>
<path d="M148 29L148 34" stroke="#2D354F" stroke-width="2" stroke-linecap="round"/>
<path d="M139 29L139 34" stroke="#2D354F" stroke-width="2" stroke-linecap="round"/>
<path d="M136 32L136 34" stroke="#2D354F" stroke-width="2" stroke-linecap="round"/>
<path d="M142 32L142 34" stroke="#2D354F" stroke-width="2" stroke-linecap="round"/>
<path d="M145 32L145 34" stroke="#2D354F" stroke-width="2" stroke-linecap="round"/>
<path d="M118 28L118 33" stroke="#2D354F" stroke-width="2" stroke-linecap="round"/>
<path d="M124 28L124 33" stroke="#2D354F" stroke-width="2" stroke-linecap="round"/>
<path d="M130 28L130 33" stroke="#2D354F" stroke-width="2" stroke-linecap="round"/>
<line x1="193" y1="23" x2="193" y2="33" stroke="#2D354F" stroke-width="2" stroke-linecap="round"/>
<path d="M199 29L199 34" stroke="#2D354F" stroke-width="2" stroke-linecap="round"/>
<path d="M214 29L214 34" stroke="#2D354F" stroke-width="2" stroke-linecap="round"/>
<path d="M205 29L205 34" stroke="#2D354F" stroke-width="2" stroke-linecap="round"/>
<path d="M202 32L202 34" stroke="#2D354F" stroke-width="2" stroke-linecap="round"/>
<path d="M208 32L208 34" stroke="#2D354F" stroke-width="2" stroke-linecap="round"/>
<path d="M211 32L211 34" stroke="#2D354F" stroke-width="2" stroke-linecap="round"/>
<path d="M226 29L226 34" stroke="#2D354F" stroke-width="2" stroke-linecap="round"/>
<path d="M250 29L250 34" stroke="#2D354F" stroke-width="2" stroke-linecap="round"/>
<path d="M229 27L229 33" stroke="#2D354F" stroke-width="2" stroke-linecap="round"/>
<path d="M247 27L247 33" stroke="#2D354F" stroke-width="2" stroke-linecap="round"/>
<path d="M232 27L232 33" stroke="#2D354F" stroke-width="2" stroke-linecap="round"/>
<path d="M244 27L244 33" stroke="#2D354F" stroke-width="2" stroke-linecap="round"/>
<path d="M235 26L235 34" stroke="#2D354F" stroke-width="2" stroke-linecap="round"/>
<path d="M241 26L241 34" stroke="#2D354F" stroke-width="2" stroke-linecap="round"/>
<path d="M238 24L238 33" stroke="#2D354F" stroke-width="2" stroke-linecap="round"/>
<path d="M217 29L217 34" stroke="#2D354F" stroke-width="2" stroke-linecap="round"/>
<path d="M220 32L220 34" stroke="#2D354F" stroke-width="2" stroke-linecap="round"/>
<path d="M223 32L223 34" stroke="#2D354F" stroke-width="2" stroke-linecap="round"/>
<path d="M196 28L196 33" stroke="#2D354F" stroke-width="2" stroke-linecap="round"/>
<line x1="160" y1="23" x2="160" y2="33" stroke="#2D354F" stroke-width="2" stroke-linecap="round"/>
<path d="M154 29L154 34" stroke="#2D354F" stroke-width="2" stroke-linecap="round"/>
<path d="M166 29L166 34" stroke="#2D354F" stroke-width="2" stroke-linecap="round"/>
<path d="M151 30L151 33" stroke="#2D354F" stroke-width="2" stroke-linecap="round"/>
<path d="M157 28L157 33" stroke="#2D354F" stroke-width="2" stroke-linecap="round"/>
<path d="M163 28L163 33" stroke="#2D354F" stroke-width="2" stroke-linecap="round"/>
<path d="M76 17L76 33" stroke="#2D354F" stroke-width="2" stroke-linecap="round"/>
<path d="M67 18L67 33" stroke="#2D354F" stroke-width="2" stroke-linecap="round"/>
<path d="M70 20L70 33" stroke="#2D354F" stroke-width="2" stroke-linecap="round"/>
<line x1="106" y1="23" x2="106" y2="33" stroke="#2D354F" stroke-width="2" stroke-linecap="round"/>
<line x1="112" y1="23" x2="112" y2="33" stroke="#2D354F" stroke-width="2" stroke-linecap="round"/>
<path d="M109 17L109 33" stroke="#2D354F" stroke-width="2" stroke-linecap="round"/>
<path d="M103 20L103 33" stroke="#2D354F" stroke-width="2" stroke-linecap="round"/>
<line x1="175" y1="23" x2="175" y2="33" stroke="#2D354F" stroke-width="2" stroke-linecap="round"/>
<path d="M169 29L169 34" stroke="#2D354F" stroke-width="2" stroke-linecap="round"/>
<path d="M181 29L181 34" stroke="#2D354F" stroke-width="2" stroke-linecap="round"/>
<path d="M172 28L172 33" stroke="#2D354F" stroke-width="2" stroke-linecap="round"/>
<path d="M178 28L178 33" stroke="#2D354F" stroke-width="2" stroke-linecap="round"/>
<line x1="187" y1="23" x2="187" y2="33" stroke="#2D354F" stroke-width="2" stroke-linecap="round"/>
<path d="M190 17L190 33" stroke="#2D354F" stroke-width="2" stroke-linecap="round"/>
<path d="M184 20L184 33" stroke="#2D354F" stroke-width="2" stroke-linecap="round"/>
<path d="M269.81 34V23.902L267.182 24.82L266.444 22.804L270.71 21.22H272.348V34H269.81ZM277.152 26.548C276.864 26.848 276.51 26.998 276.09 26.998C275.67 26.998 275.31 26.848 275.01 26.548C274.71 26.248 274.56 25.882 274.56 25.45C274.56 25.03 274.71 24.67 275.01 24.37C275.31 24.07 275.67 23.92 276.09 23.92C276.498 23.92 276.846 24.07 277.134 24.37C277.434 24.67 277.584 25.03 277.584 25.45C277.584 25.882 277.44 26.248 277.152 26.548ZM276.09 34.252C275.67 34.252 275.31 34.102 275.01 33.802C274.71 33.502 274.56 33.142 274.56 32.722C274.56 32.302 274.71 31.942 275.01 31.642C275.31 31.342 275.67 31.192 276.09 31.192C276.498 31.192 276.846 31.342 277.134 31.642C277.434 31.942 277.584 32.302 277.584 32.722C277.584 33.142 277.434 33.502 277.134 33.802C276.846 34.102 276.498 34.252 276.09 34.252ZM281.637 31.678H288.711V34H278.901V33.208C278.949 32.188 279.255 31.336 279.819 30.652C280.395 29.956 281.367 29.17 282.735 28.294C283.947 27.538 284.787 26.938 285.255 26.494C285.723 26.05 285.957 25.522 285.957 24.91C285.957 24.382 285.753 23.974 285.345 23.686C284.937 23.398 284.421 23.254 283.797 23.254C283.017 23.254 282.399 23.458 281.943 23.866C281.499 24.274 281.277 24.826 281.277 25.522V25.882H278.883V25.378C278.883 24.022 279.321 22.954 280.197 22.174C281.073 21.394 282.285 21.004 283.833 21.004C285.237 21.004 286.389 21.328 287.289 21.976C288.189 22.612 288.639 23.518 288.639 24.694C288.639 25.174 288.573 25.612 288.441 26.008C288.309 26.404 288.147 26.752 287.955 27.052C287.763 27.352 287.469 27.664 287.073 27.988C286.689 28.3 286.323 28.57 285.975 28.798C285.639 29.026 285.171 29.32 284.571 29.68C284.427 29.764 284.199 29.896 283.887 30.076C283.575 30.256 283.359 30.382 283.239 30.454C283.119 30.526 282.951 30.628 282.735 30.76C282.531 30.892 282.375 31 282.267 31.084C282.171 31.168 282.063 31.264 281.943 31.372C281.823 31.468 281.721 31.57 281.637 31.678ZM295.429 25.414C296.881 25.414 298.033 25.816 298.885 26.62C299.749 27.424 300.181 28.504 300.181 29.86C300.181 31.288 299.731 32.38 298.831 33.136C297.943 33.88 296.707 34.252 295.123 34.252C293.563 34.252 292.315 33.892 291.379 33.172C290.443 32.452 289.975 31.48 289.975 30.256V30.058H292.369V30.13C292.369 30.706 292.615 31.168 293.107 31.516C293.611 31.852 294.259 32.02 295.051 32.02C295.915 32.02 296.563 31.828 296.995 31.444C297.439 31.048 297.661 30.49 297.661 29.77C297.661 28.21 296.755 27.43 294.943 27.43C294.499 27.43 294.055 27.514 293.611 27.682C293.167 27.85 292.837 28.054 292.621 28.294H290.461L290.857 21.238H299.353V23.47H292.999L292.837 26.008C293.545 25.612 294.409 25.414 295.429 25.414Z" fill="#2D354F"/>
</svg>
