<svg width="24" height="24" viewBox="0 0 24 24" fill="none" xmlns="http://www.w3.org/2000/svg">
<path d="M20.07 6.34955H15V7.75955H20.09L20.07 6.34955ZM19 16.0495C18.6154 16.3044 18.1612 16.4337 17.7 16.4195C17.3947 16.4514 17.0862 16.4198 16.7937 16.3269C16.5011 16.234 16.2309 16.0817 16 15.8795C15.573 15.3954 15.3507 14.7644 15.38 14.1195H22C22.0477 13.4481 21.9904 12.7733 21.83 12.1195C21.6749 11.4976 21.4034 10.9106 21.03 10.3895C20.6541 9.88415 20.1686 9.47047 19.61 9.17955C18.9884 8.87309 18.3029 8.71885 17.61 8.72955C16.9583 8.72478 16.3123 8.85058 15.71 9.09955C15.1585 9.33204 14.6588 9.67198 14.24 10.0995C13.8224 10.5357 13.499 11.0531 13.29 11.6195C13.0657 12.2311 12.9539 12.8782 12.96 13.5295C12.9497 14.1902 13.0581 14.8472 13.28 15.4695C13.4685 16.0331 13.7677 16.5533 14.16 16.9995C14.5659 17.4377 15.0648 17.7794 15.62 17.9995C16.2391 18.2354 16.8976 18.3508 17.56 18.3395C18.4894 18.3685 19.407 18.1252 20.2 17.6395C21.0009 17.0704 21.5775 16.2391 21.83 15.2895H19.62C19.5017 15.6037 19.284 15.8706 19 16.0495ZM15.57 11.9295C15.6478 11.6802 15.777 11.45 15.9493 11.2536C16.1215 11.0573 16.3329 10.8992 16.57 10.7895C16.884 10.6482 17.2258 10.5799 17.57 10.5895C17.8186 10.5683 18.0689 10.6011 18.3036 10.6857C18.5384 10.7703 18.7521 10.9046 18.93 11.0795C19.2698 11.4955 19.4878 11.9973 19.56 12.5295H15.41C15.4262 12.3263 15.463 12.1253 15.52 11.9295H15.57ZM10.28 11.4495C10.789 11.2376 11.2312 10.8921 11.56 10.4495C11.8622 9.97955 12.0124 9.42788 11.99 8.86955C12.0096 8.36039 11.9103 7.85366 11.7 7.38955C11.5233 6.98747 11.2397 6.64157 10.88 6.38955C10.4987 6.12752 10.0656 5.95021 9.61 5.86955C9.07082 5.75646 8.52087 5.70281 7.97 5.70955H2V18.2895H8.1C8.65669 18.29 9.21116 18.2194 9.75 18.0795C10.2607 17.9474 10.7446 17.7275 11.18 17.4295C11.6017 17.1373 11.9452 16.7458 12.18 16.2895C12.4399 15.7793 12.5672 15.2119 12.55 14.6395C12.5689 13.9303 12.37 13.2323 11.98 12.6395C11.5606 12.0435 10.9385 11.6205 10.23 11.4495H10.28ZM4.77 7.85955H7.36C7.59795 7.85926 7.83548 7.87933 8.07 7.91955C8.28595 7.95155 8.49334 8.02635 8.68 8.13955C8.86035 8.24156 9.00648 8.39465 9.1 8.57955C9.21582 8.80127 9.27102 9.04965 9.26 9.29955C9.27863 9.51479 9.24572 9.73137 9.16399 9.93135C9.08225 10.1313 8.95405 10.309 8.79 10.4495C8.43212 10.6956 8.00388 10.8184 7.57 10.7995H4.77V7.85955ZM9.61 15.2995C9.50726 15.5034 9.35189 15.676 9.16 15.7995C8.9603 15.9238 8.74027 16.0118 8.51 16.0595C8.25406 16.1168 7.99224 16.1437 7.73 16.1395H4.73V12.6895H7.73C8.24482 12.667 8.75322 12.8108 9.18 13.0995C9.37281 13.2726 9.52217 13.4886 9.61599 13.7301C9.7098 13.9715 9.74543 14.2317 9.72 14.4895C9.74704 14.7644 9.70936 15.0418 9.61 15.2995Z"/>
</svg>
