<svg xmlns="http://www.w3.org/2000/svg" viewBox="0 0 31 31">
<path d="M10.7,5.5c0.1,0,0.3,0,0.4,0.1c0.2,0.2,0.2,0.5,0,0.7L2.2,15H30c0.3,0,0.5,0.2,0.5,0.5S30.3,16,30,16H2.2l8.8,8.6c0.2,0.2,0.2,0.5,0,0.7c-0.2,0.2-0.5,0.2-0.7,0l-9.7-9.5c0,0,0,0,0,0l0,0c0,0,0,0,0,0l0,0v0c0,0-0.1-0.1-0.1-0.2c0,0,0,0,0,0c0,0,0,0,0,0c0-0.1,0-0.1,0-0.2l0,0c0,0,0,0,0,0c0,0,0,0,0,0c0,0,0,0,0,0c0,0,0,0,0,0v0l0,0c0,0,0,0,0,0v0c0,0,0,0,0,0v0c0,0,0,0,0,0v0c0,0,0,0,0,0v0c0,0,0,0,0,0l0,0v0c0,0,0,0,0,0c0,0,0,0,0,0c0,0,0,0,0,0c0,0,0,0,0,0l0,0c0-0.1,0-0.1,0-0.2c0,0,0,0,0,0c0,0,0,0,0,0c0-0.1,0.1-0.1,0.1-0.2v0c0,0,0,0,0,0c0,0,0,0,0,0l0,0c0,0,0,0,0,0l9.7-9.5C10.4,5.5,10.5,5.5,10.7,5.5z"/>
</svg>
