<svg xmlns="http://www.w3.org/2000/svg" viewBox="0 0 31 31">
<path d="M20.3,25.5c-0.1,0-0.3,0-0.4-0.1c-0.2-0.2-0.2-0.5,0-0.7l8.8-8.6H1c-0.3,0-0.5-0.2-0.5-0.5S0.7,15,1,15h27.8L20,6.4c-0.2-0.2-0.2-0.5,0-0.7c0.2-0.2,0.5-0.2,0.7,0l9.7,9.5c0,0,0,0,0,0l0,0c0,0,0,0,0,0l0,0v0c0,0,0.1,0.1,0.1,0.2c0,0,0,0,0,0c0,0,0,0,0,0c0,0.1,0,0.1,0,0.2l0,0c0,0,0,0,0,0c0,0,0,0,0,0c0,0,0,0,0,0c0,0,0,0,0,0v0l0,0c0,0,0,0,0,0v0c0,0,0,0,0,0v0c0,0,0,0,0,0v0c0,0,0,0,0,0v0c0,0,0,0,0,0l0,0v0c0,0,0,0,0,0c0,0,0,0,0,0c0,0,0,0,0,0c0,0,0,0,0,0l0,0c0,0.1,0,0.1,0,0.2c0,0,0,0,0,0c0,0,0,0,0,0c0,0.1-0.1,0.1-0.1,0.2v0c0,0,0,0,0,0c0,0,0,0,0,0l0,0c0,0,0,0,0,0l-9.7,9.5C20.6,25.5,20.5,25.5,20.3,25.5z"/>
</svg>
