<svg width="176" height="69" viewBox="0 0 176 69" fill="none" xmlns="http://www.w3.org/2000/svg">
<path fill-rule="evenodd" clip-rule="evenodd" d="M102.875 30.7075C103.166 31.967 103.353 33.2524 103.517 34.5353C103.69 35.8808 103.843 37.2338 104.046 38.5775C104.488 41.4714 105.174 44.2135 106.629 46.7805C107.77 48.7914 109.139 50.2574 110.936 51.6939L111.02 51.7615L111.122 51.7449C116.564 50.9707 121.983 50.0086 127.473 49.651C130.972 49.4237 134.484 49.3499 137.991 49.3665C141.033 49.3972 144.081 49.4974 147.113 49.7278C149.367 49.898 151.628 50.1376 153.858 50.5142C155.443 50.7809 157.04 51.1164 158.577 51.5907C159.619 51.9114 160.67 52.3052 161.63 52.8263C162.624 53.3669 163.694 54.1442 164.174 55.2114C164.308 55.5045 164.39 55.8043 164.427 56.1244C164.442 56.243 164.449 56.3597 164.455 56.4777C164.46 56.5668 164.462 56.6596 164.472 56.7499C164.471 57.1929 164.044 57.7594 163.761 58.061C162.93 58.9501 161.673 59.613 160.568 60.0781C159.605 60.483 158.601 60.8013 157.591 61.068C156.237 61.4231 154.854 61.6916 153.468 61.9036C151.664 62.1757 149.844 62.3564 148.023 62.4774C145.715 62.6316 143.399 62.6937 141.087 62.6937C138.704 62.6937 136.322 62.5542 133.956 62.2544C131.714 61.9688 129.493 61.5418 127.304 60.9758C122.82 59.8158 118.534 58.1022 114.349 56.1361C113.8 55.878 113.265 55.5524 112.759 55.2188C112.165 54.8249 111.586 54.4103 111.021 53.9758C110.849 53.8486 110.682 53.7153 110.512 53.582L110.426 53.5138L108.381 53.8726H108.378C107.948 53.9525 107.521 54.0324 107.092 54.1153C104.397 54.6222 101.708 55.1518 99.0104 55.6464C96.1022 56.1897 93.1841 56.678 90.2577 57.1112C86.5932 57.6494 82.9165 58.0776 79.2256 58.4027C74.7273 58.7989 70.2148 59.0404 65.6993 59.1676C62.6137 59.0791 59.5302 58.9292 56.4506 58.7178C53.7587 58.5298 51.0669 58.2828 48.3892 57.9547C44.0016 57.4171 39.598 56.654 35.3377 55.4701C31.9503 54.5251 28.6467 53.3067 25.526 51.6749C22.8068 50.2546 20.2557 48.5309 17.9211 46.5365C15.6037 44.5643 13.5053 42.3629 11.5293 40.0496L13.3175 39.2755C13.3707 39.3455 13.4307 39.434 13.4601 39.4745C13.6216 39.7031 13.7763 39.9316 13.9378 40.1596C14.4853 40.9357 15.0756 41.6805 15.7059 42.3905C17.9584 44.925 20.7089 47.0213 23.6289 48.7294C28.5335 51.5987 34.0762 53.4831 39.6005 54.7229C43.4938 55.5973 47.4587 56.1699 51.431 56.5281C56.3576 56.9754 61.3227 57.0915 66.2677 56.9778C73.0541 56.8285 79.8466 56.4525 86.595 55.6968C89.1076 55.4185 91.614 55.0836 94.1113 54.6953C96.1983 54.3678 98.2802 54.0081 100.356 53.6164L108.448 52.1037L107.479 51.1723L107.477 51.1686C105.337 49.192 103.276 46.7049 102.215 43.9573C101.525 42.1669 101.041 40.3249 100.703 38.4368C100.412 36.8215 100.236 35.2038 100.066 33.575C99.9947 32.8813 99.9225 32.187 99.8289 31.4933C99.7488 30.8949 99.6533 30.2915 99.5114 29.7023C99.285 28.7623 98.9216 27.7774 98.1741 27.1267C97.7874 26.7925 97.3359 26.5811 96.8386 26.4632H96.8349C96.5266 26.3962 96.1925 26.406 95.8769 26.406H95.6321V41.4689C95.6321 42.0827 95.7257 42.6596 96.1754 43.1112H96.1772L97.7299 44.6165C97.7819 44.6872 97.8462 44.7486 97.9098 44.8107C97.9361 44.8365 98.0126 44.9071 98.037 44.9458C98.0327 44.9827 98.0107 44.9993 97.9685 44.9993H89.7573C89.7169 44.9993 89.6949 44.9827 89.69 44.9458C89.7145 44.9071 89.7909 44.8365 89.8172 44.8107C89.8803 44.7486 89.9457 44.6878 89.9965 44.6171L91.5504 43.1118H91.5528C92.0019 42.6596 92.0949 42.0827 92.0949 41.4689V9.6953C92.0949 9.0815 92.0019 8.50703 91.5504 8.05605V8.05421L89.9965 6.54706C89.9423 6.47779 89.8823 6.41325 89.8172 6.35413C89.7909 6.32772 89.7145 6.25829 89.6894 6.21896C89.6949 6.1821 89.7169 6.16797 89.7573 6.16797H96.2947C98.1649 6.16797 100.118 6.50835 101.605 7.72304C103.871 9.57426 104.314 12.8755 104.314 15.6201C104.314 18.826 103.687 22.2545 101.057 24.3686C100.398 24.9001 99.6607 25.3099 98.8788 25.6282L98.6739 25.7124L98.7962 26.1381L99.0128 26.097C99.2808 26.0497 99.6564 26.0847 99.9023 26.2156H99.906C100.02 26.2745 100.143 26.363 100.246 26.4398C100.542 26.6592 100.814 26.9154 101.062 27.1863C101.957 28.1774 102.543 29.4228 102.875 30.7075ZM114.009 52.7593L112.659 52.9915L113.142 53.3282C113.539 53.6029 113.937 53.872 114.339 54.1386L114.346 54.1448L114.352 54.1491C115.066 54.551 115.795 54.9256 116.537 55.2722C122.204 57.9277 128.347 59.7433 134.581 60.4744C136.399 60.6876 138.244 60.8136 140.076 60.8093C140.576 60.8093 141.075 60.7982 141.577 60.7712C141.751 60.7626 141.927 60.754 142.1 60.7386C143.149 60.6826 144.197 60.6116 145.244 60.5254C147.541 60.3448 149.845 60.1107 152.128 59.7924C153.329 59.6259 154.529 59.4299 155.717 59.194C156.767 58.9833 157.826 58.7393 158.844 58.4137C159.813 58.104 161.809 57.4012 161.966 56.2166C161.974 56.1521 161.978 56.0863 161.974 56.02C161.929 54.8845 160.876 54.1147 159.95 53.6311C159.272 53.2772 158.533 53.0026 157.8 52.7759C156.897 52.499 155.981 52.2695 155.054 52.0884C152.815 51.6337 150.511 51.3615 148.233 51.1649C145.645 50.9413 143.041 50.8257 140.441 50.7834C139.669 50.7685 138.897 50.7609 138.125 50.7606H138.123C134.203 50.7987 130.285 50.9542 126.377 51.2626C122.306 51.5885 118.249 52.0763 114.216 52.7249L114.008 52.7556V52.7593H114.009ZM95.8041 8.05236V23.7536H96.8563C97.4436 23.7536 98.0217 23.6584 98.5399 23.3788C99.531 22.848 100.009 21.7986 100.285 20.7817C100.491 20.0217 100.602 19.226 100.673 18.4439C100.772 17.3939 100.798 16.334 100.798 15.2809C100.798 14.4318 100.773 13.5747 100.689 12.728C100.624 12.0798 100.523 11.4212 100.343 10.7957C100.086 9.89744 99.6533 9.02129 98.8079 8.51379C98.2193 8.16234 97.5384 8.05236 96.8563 8.05236H95.8041Z" fill="#C4C4C4"/>
<path fill-rule="evenodd" clip-rule="evenodd" d="M24.0874 45.0938C24.0291 45.1854 23.9584 45.2685 23.8776 45.3408C23.8543 45.3641 23.7962 45.4108 23.7675 45.4452C23.7736 45.4759 23.7962 45.4907 23.8354 45.4907H30.8041C31.7811 45.4907 32.763 45.366 33.669 44.9832C35.8897 44.0395 36.9701 41.7581 37.6198 39.5641C37.875 38.6887 38.0813 37.7997 38.2377 36.9012C38.4365 35.8082 38.5797 34.7029 38.6904 33.5957C38.8199 32.2627 38.9117 30.9262 38.9657 29.5879C39.033 28.0009 39.0599 26.409 39.0599 24.8195C39.0599 22.3465 38.9645 19.844 38.6629 17.3863C38.4408 15.58 38.1013 13.7263 37.5152 11.9992C36.7646 9.79039 35.5208 7.55271 33.2689 6.62495C32.4834 6.30115 31.6508 6.16844 30.8041 6.16844H23.836C23.7932 6.16844 23.7711 6.18257 23.7656 6.22067C23.7919 6.25999 23.8684 6.33003 23.8959 6.35706C23.9596 6.41728 24.0244 6.4824 24.0758 6.55245L25.6462 8.07803L25.6468 8.08048C26.1008 8.53699 26.1938 9.11884 26.1938 9.74001V41.9154C26.1938 42.5372 26.1008 43.1209 25.6468 43.5786H25.6462L24.0874 45.0938ZM29.501 8.07127H30.7594C30.8396 8.07127 30.9179 8.07311 30.9968 8.07987C31.6269 8.12104 32.1555 8.34468 32.6119 8.76187C33.2518 9.34678 33.6543 10.2285 33.9266 11.0174C34.1609 11.6994 34.3303 12.4059 34.468 13.1094C34.6488 14.0566 34.7862 15.0115 34.8797 15.9714C35.0094 17.2223 35.0895 18.4781 35.1452 19.7315C35.2119 21.3229 35.2364 22.9148 35.2364 24.5074C35.2364 26.3199 35.2119 28.1336 35.1452 29.9473C35.0901 31.3666 35.0106 32.7871 34.8797 34.2015C34.7865 35.2798 34.6498 36.3539 34.4698 37.421C34.3322 38.2038 34.1633 38.9884 33.929 39.7484C33.6659 40.5914 33.2683 41.5794 32.6125 42.2233C32.161 42.6687 31.6324 42.9053 30.9852 42.9483C30.91 42.9517 30.8347 42.9535 30.7594 42.9538H29.501V8.07127ZM54.3463 19.6867C54.3522 19.6634 54.3549 19.6394 54.3543 19.6154V6.397C54.3543 6.30545 54.2815 6.16844 54.1854 6.16844H40.9626C40.9216 6.16844 40.9002 6.18257 40.8953 6.22067C40.9197 6.25999 40.9931 6.33003 41.0213 6.35706C41.0812 6.41728 41.1461 6.4824 41.195 6.55245L42.7134 8.07803V8.08048C43.1533 8.53699 43.242 9.11884 43.242 9.74001V41.9154C43.242 42.5372 43.1533 43.1209 42.7134 43.5786L41.2054 45.0938C41.1497 45.1852 41.0816 45.2683 41.0029 45.3408C40.9809 45.3641 40.9234 45.4108 40.8971 45.4452C40.9026 45.4759 40.924 45.4907 40.9626 45.4907H54.1854C54.3102 45.4907 54.3543 45.3758 54.3543 45.2597V31.9356C54.3543 31.9159 54.3463 31.879 54.331 31.8643C54.2655 31.8661 54.2264 31.9313 54.2111 31.9933V31.997L51.452 42.2005L51.4508 42.2048C51.2079 42.9636 50.5925 43.331 49.8455 43.331H46.6949V26.694H48.0579C48.417 26.694 48.7015 26.8661 48.8385 27.2157L50.5717 31.0828C50.5894 31.1203 50.6463 31.2487 50.6781 31.2972V20.0332C50.6549 20.0768 50.6304 20.1315 50.6212 20.1518L48.8379 23.8598C48.6996 24.2087 48.4152 24.3765 48.0579 24.3765H46.6955V8.32502H49.8455C50.6261 8.32502 51.1694 8.72623 51.4006 9.5096V9.51145L54.1597 19.4993L54.1609 19.5036C54.1836 19.5927 54.2405 19.6867 54.3384 19.6867H54.3463ZM67.2223 7.22584C66.6093 6.70789 65.765 6.16844 64.9526 6.16844C64.2381 6.16844 63.5602 6.33433 62.935 6.70052C60.0413 8.40612 59.2338 13.8897 58.9328 17.0226C58.6844 19.5951 58.6367 22.1818 58.6367 24.7672C58.6367 26.7917 58.6709 28.8162 58.7774 30.8352C58.86 32.4173 58.9854 33.9981 59.1922 35.568C59.3787 36.9971 59.6332 38.4397 60.0162 39.824C60.5448 41.7409 61.504 44.1937 63.3259 45.1098C63.8392 45.3715 64.3855 45.4907 64.9532 45.4907C65.7981 45.4907 66.6123 45.3014 67.3257 44.8044C68.6514 43.8822 69.2833 42.1243 69.6363 40.5631C69.8908 39.4326 70.0309 38.2609 70.1196 37.1052C70.2279 35.7044 70.2603 34.2931 70.2603 32.8885C70.2603 32.8492 70.2555 32.7054 70.2218 32.6747C70.2071 32.6624 70.1606 32.66 70.1441 32.66C70.023 32.66 69.9765 32.7079 69.9765 32.8363C69.9765 32.9076 69.9685 32.9868 69.9612 33.0569C69.9502 33.192 69.9367 33.3248 69.922 33.4562C69.8747 33.8791 69.8196 34.3011 69.7569 34.7219C69.5853 35.9312 69.3542 37.1312 69.0643 38.3174C68.9225 38.8945 68.7574 39.4656 68.5694 40.0292C68.3975 40.5496 68.1896 41.0573 67.9472 41.5486C67.582 42.2687 67.0076 43.1381 66.189 43.304C66.0972 43.3212 66.0042 43.331 65.9094 43.331C65.6305 43.331 65.3539 43.2979 65.0872 43.2039C64.4938 42.9968 64.0955 42.5348 63.8019 41.9701C63.3479 41.102 63.1106 39.9487 62.9552 38.9779C62.8304 38.1897 62.7341 37.3972 62.6664 36.602C62.5748 35.5746 62.5065 34.5452 62.4615 33.5146C62.3263 30.6207 62.2975 27.7146 62.2975 24.8195C62.2975 22.5437 62.311 20.2667 62.3807 17.9928C62.4101 17.0927 62.4474 16.1932 62.5037 15.2955C62.5526 14.5496 62.6138 13.8019 62.7025 13.059C62.7723 12.4612 62.8616 11.8579 62.9864 11.268C63.0855 10.8085 63.2078 10.3434 63.3779 9.90405C63.622 9.28719 63.9976 8.65189 64.6259 8.41902C64.7972 8.3539 64.9746 8.32502 65.1539 8.32502C68.332 8.32502 69.6694 16.7086 70.0236 19.3119C70.0358 19.3973 70.0817 19.6867 70.1937 19.6867C70.2475 19.6867 70.2603 19.4907 70.2603 19.4557V6.82094C70.2603 6.66427 70.2585 6.48425 70.2298 6.32819C70.2218 6.29747 70.1992 6.19056 70.1692 6.17028C70.1643 6.16844 70.149 6.16844 70.1447 6.16844C70.0915 6.16844 69.9704 6.25569 69.9306 6.28886C69.7978 6.39086 69.6724 6.52173 69.5605 6.64829C69.4932 6.72264 69.4283 6.79944 69.3653 6.87686L69.3635 6.87931C69.0961 7.20065 68.66 7.60186 68.228 7.60186C67.8463 7.60186 67.5184 7.48512 67.2223 7.22584ZM80.6354 6.16844C79.9007 6.16844 79.2008 6.32819 78.556 6.68577C76.9207 7.58588 75.9829 9.53049 75.4188 11.249C75.0469 12.382 74.7862 13.5598 74.5892 14.7358C74.3757 16.0082 74.2356 17.2966 74.1371 18.5851C73.9799 20.6396 73.931 22.7041 73.931 24.7672C73.931 25.5475 73.9353 26.326 73.9457 27.1045C73.972 29.0687 74.0356 31.0355 74.1873 32.9948C74.3256 34.7717 74.5317 36.5688 74.9013 38.3131C75.3894 40.6221 76.3597 43.7814 78.5633 44.9832C79.2081 45.3322 79.9056 45.4907 80.6354 45.4907C81.3805 45.4907 82.0939 45.3303 82.7503 44.9672C84.9551 43.7556 85.9266 40.6067 86.4173 38.2898C86.7868 36.5479 86.9954 34.7526 87.133 32.9801C87.2854 31.0262 87.349 29.0644 87.3741 27.1069C87.3863 26.326 87.39 25.5469 87.39 24.7672C87.39 22.7041 87.3417 20.636 87.1838 18.5814C87.0892 17.2968 86.9371 16.0171 86.728 14.7462C86.5323 13.5752 86.2717 12.3979 85.8991 11.2723C85.3326 9.5477 84.3929 7.61046 82.7595 6.70052C82.1 6.33433 81.386 6.16844 80.636 6.16844H80.6354ZM80.6342 8.07127C81.2692 8.07127 81.7036 8.58123 81.9874 9.07521C82.1991 9.44816 82.3594 9.86412 82.4903 10.2702C82.6677 10.8232 82.8005 11.3946 82.9124 11.9642C83.0556 12.7015 83.1639 13.4486 83.2513 14.1963C83.3604 15.1309 83.4454 16.0682 83.5064 17.0072C83.6722 19.4999 83.7193 22.0104 83.7193 24.5074C83.7193 27.392 83.6759 30.289 83.5064 33.1699C83.4465 34.227 83.3615 35.2824 83.2513 36.3354C83.168 37.1635 83.0552 37.9884 82.913 38.8084C82.8029 39.4228 82.6708 40.0421 82.4915 40.6436C82.363 41.0762 82.2058 41.5148 81.9899 41.9124C81.7133 42.4217 81.2827 42.9538 80.6342 42.9538C79.9924 42.9538 79.5728 42.4119 79.3066 41.9105C79.0968 41.513 78.942 41.0737 78.8154 40.6436C78.6392 40.0421 78.5095 39.4234 78.4006 38.8065C78.2605 37.9869 78.1483 37.1627 78.0641 36.3354C77.957 35.2823 77.8738 34.2268 77.8145 33.1699C77.6463 30.289 77.6016 27.392 77.6016 24.5067C77.6016 22.0104 77.6487 19.4993 77.8145 17.0072C77.8769 16.0684 77.9564 15.1302 78.0653 14.1963C78.1541 13.4486 78.2599 12.7015 78.4018 11.9642C78.5119 11.3952 78.6429 10.8257 78.8178 10.2721C78.9451 9.86657 79.1011 9.45246 79.3085 9.07952C79.5813 8.59045 80.0071 8.07127 80.6342 8.07127ZM109.276 40.004C109.276 41.1407 109.543 42.2656 110.19 43.2063C111.358 44.915 113.368 45.4907 115.329 45.4907C117.178 45.4907 118.984 44.7964 120.123 43.2757C120.833 42.3277 121.175 41.1892 121.175 40.0034V9.74001C121.175 9.19933 121.258 8.46695 121.671 8.07434L123.299 6.5334C123.367 6.4695 123.485 6.34109 123.485 6.23664C123.485 6.18626 123.463 6.16844 123.413 6.16844H116.223C116.174 6.16844 116.154 6.18687 116.154 6.23603C116.154 6.34048 116.269 6.4695 116.337 6.5334L117.965 8.07434C118.398 8.48292 118.462 9.17721 118.462 9.74001V38.6228C118.462 39.9837 118.297 42.0266 117.114 42.9053C116.711 43.2039 116.246 43.331 115.751 43.331C112.977 43.331 112.828 40.8058 112.828 38.6228V9.74001C112.828 9.19933 112.911 8.46695 113.327 8.07434L114.953 6.5334C115.023 6.4695 115.138 6.34109 115.138 6.23664C115.138 6.18626 115.116 6.16844 115.069 6.16844H107.036C106.988 6.16844 106.967 6.18687 106.967 6.23603C106.967 6.34048 107.084 6.4695 107.151 6.5334L108.778 8.07434C109.211 8.48292 109.277 9.17721 109.277 9.74001V40.004H109.276ZM124.708 6.19302C124.727 6.27781 124.971 6.49592 125.018 6.55245L126.346 8.09216C126.763 8.57631 126.882 9.11024 126.882 9.74001V41.9154C126.882 42.5458 126.762 43.0797 126.345 43.5639L125.018 45.1036C124.971 45.1595 124.727 45.3776 124.708 45.463C124.72 45.4821 124.757 45.4907 124.777 45.4907H131.304C131.324 45.4907 131.359 45.4821 131.373 45.4612L131.372 45.4551C131.36 45.4059 131.309 45.3426 131.28 45.3057C131.206 45.216 131.126 45.1337 131.054 45.0416L129.939 43.6075C129.55 43.1049 129.515 42.5274 129.515 41.9154V15.9714H130.084L134.413 45.2246C134.421 45.2744 134.446 45.4213 134.476 45.4907H135.6C135.633 45.4907 135.683 45.4864 135.71 45.4612C135.752 45.4256 135.773 45.3303 135.779 45.2781L139.84 15.9707H140.409V41.9154C140.409 42.5274 140.376 43.1049 139.986 43.6075L138.874 45.0416C138.8 45.1337 138.721 45.216 138.647 45.3057C138.607 45.3489 138.576 45.3999 138.556 45.4557L138.555 45.4716V45.4802C138.571 45.4888 138.61 45.4907 138.624 45.4907H146.051C146.071 45.4907 146.106 45.4821 146.12 45.463L146.119 45.4575C146.094 45.374 145.875 45.1792 145.81 45.1036L144.482 43.5639C144.066 43.0797 143.999 42.5348 143.999 41.9154V9.74001C143.999 9.1213 144.066 8.57877 144.482 8.09216L145.81 6.55245C145.853 6.50268 145.9 6.4566 145.947 6.41113C145.984 6.37181 146.106 6.25753 146.12 6.19302C146.106 6.17274 146.071 6.16844 146.051 6.16844H139.419C139.386 6.16695 139.353 6.17393 139.323 6.18872C139.168 6.28456 139.104 6.69622 139.082 6.85597L135.815 30.0585H135.28L131.747 6.86027C131.718 6.66857 131.655 6.36259 131.492 6.23664C131.421 6.18817 131.336 6.16424 131.25 6.16844H124.777C124.757 6.16844 124.721 6.17274 124.708 6.19302Z" fill="#C4C4C4"/>
</svg>
