<svg width="109" height="106" viewBox="0 0 109 106" fill="none" xmlns="http://www.w3.org/2000/svg">
<path d="M15.3636 84.1782C16.2633 82.8662 17.0246 81.6232 17.7858 80.3802C18.5471 79.1372 19.3084 77.8251 20.1389 76.375C20.5541 76.444 20.9001 76.5131 21.1769 76.5131C21.4538 76.5131 21.7998 76.444 22.215 76.375C21.1077 77.8942 20.0696 79.3443 19.0316 80.7945C17.9935 82.2447 16.9554 83.6948 15.9865 85.2831C17.0938 87.1476 18.1319 88.943 19.2392 90.6694C20.3465 92.3958 21.4538 94.1912 22.5611 95.9176C22.2842 95.8486 22.0074 95.8486 21.7306 95.8486H20.0696C19.7928 95.8486 19.516 95.8486 19.2392 95.9176C18.4779 94.5365 17.7166 93.1554 16.9554 91.7052C16.1941 90.2551 15.3636 88.874 14.3947 87.4238C13.4258 88.874 12.5262 90.3241 11.6957 91.7052C10.8652 93.1554 10.0347 94.5365 9.27346 95.9176C9.06584 95.8486 8.92742 95.8486 8.71981 95.8486H7.75092C7.5433 95.8486 7.40488 95.8486 7.19727 95.9176L10.5192 91.1528C11.6265 89.5645 12.6646 87.9072 13.7719 86.2499C12.803 84.5925 11.7649 82.9352 10.796 81.3469C9.82711 79.7587 8.78901 78.1013 7.75092 76.444C8.02774 76.5131 8.30457 76.5131 8.51219 76.5131C8.78901 76.5131 8.99663 76.5821 9.27346 76.5821C9.55028 76.5821 9.82711 76.5821 10.0347 76.5131C10.3116 76.5131 10.5192 76.444 10.796 76.444C11.4189 77.687 12.1109 78.9991 12.803 80.173C13.7027 81.3469 14.4639 82.728 15.3636 84.1782ZM49.7592 95.2271C49.4131 95.4342 48.9287 95.5723 48.4442 95.7105C47.8906 95.8486 47.3369 95.9867 46.7141 96.1248C46.0912 96.2629 45.3992 96.2629 44.7071 96.2629C43.1846 96.2629 41.8004 96.0557 40.5547 95.6414C39.309 95.2271 38.2017 94.5365 37.2328 93.7078C36.3331 92.8101 35.5719 91.7743 35.0874 90.5313C34.5338 89.2883 34.3262 87.8381 34.3262 86.2499C34.3262 84.6616 34.603 83.2114 35.0874 81.9684C35.6411 80.7254 36.3331 79.6206 37.302 78.7919C38.2709 77.8942 39.3782 77.2727 40.6931 76.7893C42.0081 76.3059 43.4614 76.0987 45.0531 76.0987C46.2988 76.0987 47.4754 76.2368 48.5135 76.5131C49.5515 76.7893 50.4512 77.0655 51.2817 77.4108C51.1433 77.687 51.0049 78.0323 50.9357 78.5157C50.8665 78.9991 50.7973 79.3443 50.7281 79.6206L50.5896 79.6896C50.382 79.4824 50.1052 79.2062 49.7592 78.93C49.4131 78.6538 48.9979 78.3776 48.5827 78.1013C48.0982 77.8251 47.6138 77.6179 47.0601 77.4108C46.5065 77.2036 45.8836 77.1346 45.1916 77.1346C44.0842 77.1346 43.0462 77.3417 42.0773 77.687C41.1084 78.0323 40.2779 78.5847 39.5858 79.3443C38.8938 80.1039 38.3401 81.0707 37.9249 82.1756C37.5096 83.3495 37.302 84.6616 37.302 86.2499C37.302 87.8381 37.5096 89.1502 37.9249 90.3241C38.3401 91.4981 38.8938 92.3958 39.5858 93.1554C40.2779 93.915 41.1084 94.4675 42.0773 94.8127C43.0462 95.158 44.0842 95.3652 45.1916 95.3652C45.8836 95.3652 46.5065 95.2961 47.0601 95.089C47.6138 94.9508 48.1674 94.7437 48.6519 94.4675C49.1363 94.2603 49.5515 93.9841 49.9668 93.7078C50.382 93.4316 50.6588 93.2245 50.9357 93.0173L51.0741 93.1554L50.7973 94.8127C50.382 94.8818 50.1052 95.0199 49.7592 95.2271ZM55.5033 80.5183C55.5033 79.7587 55.5033 78.9991 55.4341 78.3085C55.4341 77.5489 55.3649 76.8583 55.3649 76.1678C55.3649 75.4772 55.2957 74.9248 55.2957 74.4414C55.8493 74.5105 56.2646 74.5795 56.6106 74.5795C56.9566 74.5795 57.3719 74.5105 57.9255 74.4414C57.8563 74.9248 57.8563 75.4772 57.8563 76.1678C57.8563 76.8583 57.7871 77.5489 57.7871 78.3085C57.7871 79.0681 57.7871 79.8277 57.7179 80.5183V89.7717C57.7179 90.5313 57.7179 91.2909 57.7871 91.9815C57.7871 92.7411 57.8563 93.4316 57.8563 94.0531C57.8563 94.7437 57.9255 95.2961 57.9255 95.7105C57.5103 95.6414 57.095 95.6414 56.6106 95.6414C56.1954 95.6414 55.7801 95.6414 55.2957 95.7105C55.3649 95.2961 55.3649 94.7437 55.3649 94.0531C55.3649 93.3626 55.4341 92.672 55.4341 91.9815C55.4341 91.2219 55.4341 90.4622 55.5033 89.7717V80.5183ZM63.3928 78.8609C63.8081 78.8609 64.1541 78.7228 64.4309 78.4466C64.7077 78.1704 64.8461 77.8251 64.8461 77.4108C64.8461 76.9965 64.7077 76.6512 64.4309 76.375C64.1541 76.0987 63.8081 75.9606 63.3928 75.9606C62.9776 75.9606 62.6315 76.0987 62.3547 76.375C62.0779 76.6512 61.9395 76.9965 61.9395 77.4108C61.9395 77.8251 62.0779 78.1704 62.3547 78.4466C62.6315 78.7228 62.9776 78.8609 63.3928 78.8609ZM64.5001 85.0069C64.5001 84.0401 64.5693 83.2114 64.7077 82.3828C64.1541 82.4518 63.7388 82.5209 63.3928 82.5209C63.0468 82.5209 62.6315 82.4518 62.1471 82.3828C62.2163 83.2114 62.2855 84.0401 62.3547 85.0069C62.3547 85.9736 62.4239 86.8714 62.4239 87.7V90.6694C62.4239 91.4981 62.4239 92.3958 62.3547 93.3626C62.3547 94.3293 62.2855 95.158 62.1471 95.9176C62.5623 95.8486 62.9776 95.8486 63.3928 95.8486C63.8081 95.8486 64.2233 95.8486 64.7077 95.9176C64.6385 95.158 64.5693 94.3293 64.5001 93.3626C64.5001 92.3958 64.4309 91.4981 64.4309 90.6694V87.7C64.4309 86.8714 64.5001 85.9736 64.5001 85.0069ZM77.5109 84.6616C76.9573 83.902 76.196 83.5567 75.2271 83.5567C73.9122 83.5567 72.9433 83.971 72.3204 84.7997C71.6976 85.6284 71.4208 86.7333 71.4208 88.2525V90.6694C71.4208 91.4981 71.4208 92.3958 71.49 93.3626C71.49 94.3293 71.5592 95.158 71.6976 95.9176C71.2823 95.8486 70.8671 95.8486 70.3827 95.8486C69.9674 95.8486 69.5522 95.8486 69.0677 95.9176C69.1369 95.158 69.2062 94.3293 69.2754 93.3626C69.2754 92.3958 69.3446 91.4981 69.3446 90.6694V87.7C69.3446 86.8714 69.3446 85.9736 69.2754 85.0069C69.2754 84.0401 69.2062 83.2114 69.0677 82.3828C69.6214 82.4518 70.0366 82.5209 70.3827 82.5209C70.5211 82.5209 70.7287 82.5209 70.8671 82.4518C71.0747 82.4518 71.2823 82.3828 71.49 82.3828C71.4208 83.1424 71.4208 83.902 71.4208 84.6616H71.49C72.0436 83.8329 72.6665 83.2114 73.4277 82.7971C74.189 82.3828 75.0195 82.1066 76.0576 82.1066C76.6112 82.1066 77.0957 82.1756 77.6493 82.3137C78.203 82.4518 78.6874 82.728 79.1027 83.0733C79.5179 83.4186 79.8639 83.971 80.1408 84.5925C80.4176 85.214 80.556 86.0427 80.556 87.0095C80.556 87.8381 80.556 88.6668 80.4868 89.4955C80.4176 90.3241 80.4176 91.2909 80.4176 92.2577V95.0199C80.4176 95.2961 80.4176 95.5723 80.4868 95.8486C80.1408 95.7795 79.7255 95.7795 79.3103 95.7795C78.895 95.7795 78.549 95.7795 78.1338 95.8486C78.203 94.8818 78.203 93.846 78.2722 92.8101C78.3414 91.7743 78.3414 90.6694 78.3414 89.6336V87.9072C78.3414 86.457 78.0646 85.4212 77.5109 84.6616ZM84.3623 77.4108C84.3623 76.9965 84.5008 76.6512 84.7776 76.375C85.0544 76.0987 85.4004 75.9606 85.8157 75.9606C86.2309 75.9606 86.5769 76.0987 86.8538 76.375C87.1306 76.6512 87.269 76.9965 87.269 77.4108C87.269 77.8251 87.1306 78.1704 86.8538 78.4466C86.5769 78.7228 86.2309 78.8609 85.8157 78.8609C85.4004 78.8609 85.0544 78.7228 84.7776 78.4466C84.5008 78.1704 84.3623 77.8251 84.3623 77.4108ZM84.7084 87.7C84.7084 86.8714 84.7084 85.9736 84.6392 85.0069C84.6392 84.0401 84.57 83.2114 84.4315 82.3828C84.9852 82.4518 85.4004 82.5209 85.7465 82.5209C86.0925 82.5209 86.5077 82.4518 87.0614 82.3828C86.9922 83.2114 86.923 84.0401 86.8538 85.0069C86.8538 85.9736 86.7846 86.8714 86.7846 87.7V90.6694C86.7846 91.4981 86.7846 92.3958 86.8538 93.3626C86.8538 94.3293 86.923 95.158 87.0614 95.9176C86.6461 95.8486 86.2309 95.8486 85.7465 95.8486C85.262 95.8486 84.916 95.8486 84.4315 95.9176C84.5008 95.158 84.57 94.3293 84.6392 93.3626C84.6392 92.3958 84.7084 91.4981 84.7084 90.6694V87.7ZM91.0754 89.1502C91.0754 87.9072 91.283 86.8714 91.6982 85.9736C92.1134 85.0759 92.6671 84.3163 93.3592 83.7639C94.0512 83.2114 94.8125 82.728 95.7122 82.4518C96.6119 82.1756 97.4423 82.0375 98.4112 82.0375C99.4493 82.0375 100.418 82.1756 101.249 82.4518C102.079 82.728 102.633 83.0043 103.048 83.3495C102.91 83.6258 102.771 83.902 102.702 84.2473C102.564 84.5925 102.494 84.8688 102.425 85.214H102.218C102.079 84.9378 101.872 84.7307 101.664 84.4544C101.456 84.1782 101.179 83.971 100.833 83.7639C100.487 83.5567 100.141 83.3495 99.7954 83.2114C99.4493 83.0733 98.9649 83.0043 98.5496 83.0043C97.7192 83.0043 96.9579 83.1424 96.335 83.4877C95.7122 83.8329 95.2277 84.2473 94.8125 84.7997C94.3973 85.3522 94.1204 85.9736 93.982 86.7333C93.7744 87.4929 93.7052 88.3215 93.7052 89.1502C93.7052 91.0837 94.1204 92.603 94.9509 93.5697C95.7814 94.5365 97.0271 95.089 98.6189 95.089C98.9649 95.089 99.3801 95.0199 99.7954 94.9508C100.211 94.8127 100.557 94.6746 100.972 94.5365C101.318 94.3293 101.733 94.1222 102.01 93.915C102.356 93.6388 102.633 93.4316 102.91 93.0864L103.048 93.1554C102.979 93.6388 102.91 94.0531 102.91 94.5365C102.356 95.0199 101.664 95.3652 100.764 95.7105C99.9338 96.0557 99.0341 96.1938 98.1344 96.1938C97.3039 96.1938 96.4734 96.0557 95.643 95.8486C94.8125 95.6414 94.0512 95.2271 93.4284 94.6746C92.7363 94.1222 92.2519 93.3626 91.8366 92.5339C91.283 91.5671 91.0754 90.4623 91.0754 89.1502ZM27.1287 86.5951H29.2049C29.8277 86.5951 30.4506 86.6642 30.935 86.7333C30.935 86.457 30.8658 86.1808 30.8658 85.8355C30.8658 85.5593 30.8658 85.2831 30.935 84.9378C30.4506 85.0069 29.8277 85.0759 29.2049 85.0759H25.0525C24.4296 85.0759 23.8068 85.0069 23.3223 84.9378C23.3223 85.214 23.3916 85.4903 23.3916 85.8355C23.3916 86.1118 23.3916 86.388 23.3223 86.7333C23.8068 86.6642 24.4296 86.5951 25.0525 86.5951H27.1287Z" fill="#C4C4C4"/>
<path d="M56.6791 35.1489C56.4023 35.4941 55.9178 35.7704 55.4334 35.7704C55.0874 35.7704 54.7413 35.6323 54.4645 35.4941C53.288 38.3945 50.0353 45.6453 43.8759 51.7912C37.7166 57.9371 30.3807 61.2518 27.474 62.3567L54.4645 35.4251C54.0493 35.1489 53.7724 34.6655 53.7724 34.113C53.7724 33.6297 53.9801 33.1463 54.3953 32.87L27.6817 6.21467C30.6575 7.38861 37.855 10.7033 43.9452 16.7801C49.9661 22.788 53.2188 29.8316 54.4645 32.87C54.7413 32.6629 55.0874 32.5248 55.5026 32.5248C56.0563 32.5248 56.5407 32.801 56.8175 33.2153L83.5312 6.55994C82.3547 9.46027 79.102 16.7801 72.9426 22.9261C66.9909 28.8648 60.001 32.1104 56.8867 33.3534C57.0251 33.5606 57.0944 33.9059 57.0944 34.1821C57.0944 34.4583 56.9559 34.8726 56.6791 35.1489C59.655 36.3228 66.8525 39.6375 72.8734 45.6453C78.9636 51.7222 82.2163 58.8349 83.462 61.8733L56.6791 35.1489ZM66.7832 51.7222C60.9007 45.8525 57.648 38.9469 56.3331 35.8394L82.7699 62.1495C79.5864 60.9065 72.6658 57.5919 66.7832 51.7222ZM64.4302 54.1391C59.5166 49.2362 57.4404 42.5378 56.6099 38.2564C58.3401 41.8472 61.3852 47.4407 66.2988 52.2746C71.1432 57.1085 76.6797 60.216 80.3477 61.9424C76.0569 61.1137 69.3439 59.042 64.4302 54.1391ZM46.2982 54.1391C41.3845 59.042 34.6715 61.1137 30.3807 61.9424C33.9794 60.216 39.5851 57.1775 44.4296 52.2746C49.274 47.4407 52.3883 41.9163 54.1185 38.2564C53.2188 42.4687 51.2118 49.2362 46.2982 54.1391ZM37.7858 45.6453C43.5991 39.8446 50.3813 36.599 53.5648 35.287L27.4048 61.459C28.7198 58.2134 31.9725 51.4459 37.7858 45.6453ZM35.4328 43.2974C40.2772 38.4635 46.921 36.3919 51.2118 35.5632C47.6131 37.2896 42.0766 40.328 37.3013 45.1619C32.4569 49.9267 29.3426 55.3821 27.6817 59.042C28.5121 54.7606 30.5191 48.2003 35.4328 43.2974ZM27.3356 6.90522L53.7724 33.2844C50.6582 31.9723 43.7375 28.7267 37.7858 22.857C31.9032 16.9182 28.6505 10.0127 27.3356 6.90522ZM35.4328 25.2049C30.5191 20.302 28.4429 13.6036 27.6125 9.32216C29.3426 12.913 32.3877 18.5065 37.3013 23.3404C42.1458 28.1743 47.6823 31.2818 51.3502 33.0082C47.0594 32.1104 40.3464 30.1078 35.4328 25.2049ZM46.2982 14.3632C51.1426 19.1971 53.2188 25.8264 54.0493 30.1078C52.3191 26.5169 49.274 20.9925 44.4296 16.2277C39.6544 11.4629 34.1178 8.35538 30.5191 6.629C34.7407 7.45766 41.3845 9.52932 46.2982 14.3632ZM66.7832 16.7111C72.5966 10.9104 79.3788 7.66483 82.5623 6.35278L56.4023 32.5248C57.7172 29.2792 60.9699 22.5117 66.7832 16.7111ZM64.4302 14.3632C69.2747 9.52932 75.9185 7.45766 80.2093 6.629C76.6105 8.35538 71.074 11.3938 66.2988 16.2277C61.5236 20.9925 58.4093 26.5169 56.6791 30.1078C57.5096 25.8264 59.5166 19.2661 64.4302 14.3632ZM75.2956 25.2049C70.382 30.1078 63.669 32.1795 59.3782 33.0082C62.9769 31.2818 68.5826 28.2433 73.4271 23.3404C78.2715 18.5065 81.3858 12.9821 83.1159 9.32216C82.2163 13.6036 80.2093 20.302 75.2956 25.2049ZM75.2956 43.2974C80.1401 48.1313 82.2163 54.7606 83.0467 59.042C81.3166 55.4511 78.2715 49.9267 73.4271 45.1619C68.6518 40.328 63.1153 37.2896 59.5166 35.5632C63.7382 36.3919 70.382 38.4635 75.2956 43.2974ZM76.2645 42.2616C71.3509 37.3586 64.8455 35.2179 60.4163 34.2511C64.8455 33.2844 71.2817 31.1437 76.2645 26.2407C84.4309 18.1612 85.0537 5.86939 85.0537 5.31695L85.1229 4.48828L84.2924 4.55734C83.7388 4.55734 71.4893 5.17883 63.3921 13.3274C58.4785 18.2303 56.2639 24.7215 55.3642 29.1411C54.3953 24.7215 52.2499 18.2994 47.3363 13.3274C39.1699 5.24789 26.9204 4.62639 26.3667 4.55734H25.6055V5.31695C25.6055 5.86939 26.2975 18.1612 34.3947 26.2407C39.3083 31.1437 45.8137 33.2844 50.2429 34.2511C45.8137 35.2179 39.3775 37.3586 34.3947 42.2616C26.2975 50.3411 25.6055 62.6329 25.6055 63.1854V63.945L26.4359 63.8759C26.9896 63.8759 39.2391 63.2544 47.3363 55.1059C52.2499 50.272 54.3953 43.7808 55.3642 39.3612C56.3331 43.7808 58.4785 50.2029 63.3921 55.1749C71.4893 63.2544 83.808 63.8759 84.2924 63.945L85.1229 64.014L85.0537 63.1854C85.0537 62.6329 84.4309 50.3411 76.2645 42.2616Z" fill="#C4C4C4"/>
</svg>
