<svg width="247" height="79" viewBox="0 0 247 79" fill="none" xmlns="http://www.w3.org/2000/svg">
<g clip-path="url(#clip0_765_773)">
<path d="M14.3739 45.069H27.6404C28.7816 45.069 29.0668 44.6382 29.0668 44.2075C29.2095 43.3459 28.4963 43.2022 27.6404 42.915L18.9384 40.3304C17.512 39.8996 16.7987 39.0379 16.371 38.32C15.5152 36.7402 15.6578 34.5862 15.8005 32.5759C16.0858 30.9962 16.371 28.9857 18.0829 27.4059C18.9387 26.5444 20.3652 25.8262 22.3627 25.8262H38.1965L37.4832 32.2885H25.215C24.3592 32.2885 24.0738 32.432 23.9311 32.432C23.6458 32.5757 23.5032 32.8629 23.5032 33.1501C23.3606 34.0116 24.5018 34.299 25.3576 34.5862L33.2038 36.8838C34.2023 37.171 35.4861 37.7453 36.3422 38.6069C37.6261 40.1866 37.4834 42.6279 37.198 44.4943C37.0554 45.9304 36.6274 48.0844 35.3436 49.5201C33.632 51.3871 31.9204 51.5307 30.208 51.5307H13.5176L14.3734 45.0684" fill="#C4C4C4"/>
<path d="M44.759 51.3871L47.3271 32.2877H38.7676L39.6234 25.9688H64.5871L63.7313 32.2877H55.1725L52.4619 51.3871H44.759Z" fill="#C4C4C4"/>
<path d="M110.092 30.8513C110.235 29.7025 110.52 28.2667 111.519 27.2612C112.517 26.2559 113.944 25.9688 114.943 25.9688H128.066C129.635 25.9688 132.202 25.9687 133.487 28.41C134.343 29.9898 134.2 32.2877 133.915 34.2982C133.772 35.447 133.202 38.4625 132.203 40.6164C131.062 42.9141 129.208 43.7759 127.353 43.7759H126.355V43.9195L132.204 51.5308H122.789L118.795 44.781C118.224 43.6322 117.511 42.627 117.654 41.3349L117.796 40.7605C118.081 39.0374 119.651 37.8884 121.648 37.8884H122.932C123.645 37.8884 124.501 37.8884 125.214 37.1703C125.642 36.5959 125.928 35.7343 126.07 35.0163C126.213 33.5802 125.927 33.0058 125.785 32.8622C125.357 32.1441 124.358 32.2878 123.645 32.2878H119.365C118.937 32.2878 118.509 32.2878 118.081 32.7186C117.511 33.1494 117.511 33.7238 117.368 34.2984L114.943 51.3873H107.24L110.093 30.8515" fill="#C4C4C4"/>
<path d="M137.195 51.3859C136.34 51.3859 135.198 51.0987 134.628 50.5244C134.2 50.0935 133.772 49.0883 133.915 48.0831L137.053 25.8242H144.756L142.331 43.3439C142.331 43.6311 142.188 44.2054 142.474 44.6363C142.759 44.9235 143.187 44.9235 143.615 44.9235H156.025L155.17 51.2425H137.196V51.3861H137.195" fill="#C4C4C4"/>
<path d="M167.58 25.9683L165.583 40.616C165.44 41.7649 165.297 43.2006 166.296 44.2061C166.866 44.7805 168.007 45.0677 169.149 45.0677C170.29 45.0677 171.431 44.7805 172.287 44.2061C173.571 43.2009 173.856 41.6215 173.999 40.616L175.996 25.9683H183.699L181.559 41.1901C181.131 43.7747 180.418 46.6467 177.993 48.8013C175.14 51.3859 171.574 51.6734 168.15 51.6734C164.726 51.6734 161.303 51.3862 159.163 48.8013C157.309 46.6472 157.309 43.7754 157.737 41.1901L159.876 25.8242H167.579V25.9679" fill="#C4C4C4"/>
<path d="M185.98 30.1334C186.123 28.9845 186.551 27.9793 187.264 27.2613C187.978 26.5432 189.119 25.9688 190.117 25.9688H203.241C204.953 25.9688 207.093 26.1124 208.234 27.6918C209.376 29.1279 209.233 31.4256 208.948 33.1485C208.805 34.5845 208.52 35.877 207.236 37.1695C206.38 38.031 205.667 38.3184 204.669 38.4619V38.6056C205.953 38.7491 206.808 39.3236 207.379 39.898C208.52 41.1905 208.235 42.9137 208.092 44.3498C207.807 45.9295 207.664 48.0835 205.953 49.6632C204.098 51.3862 202.386 51.3862 200.247 51.3862H187.694C186.695 51.3862 185.126 51.5299 184.271 50.2374C183.843 49.5194 183.7 48.3706 183.843 47.3653L185.982 30.1331L185.98 30.1334ZM191.831 43.201C191.689 44.0625 191.689 44.4934 191.831 44.7807C192.117 45.2116 192.83 45.2116 193.258 45.2116H197.394C198.821 45.2116 199.391 44.9244 199.534 44.6372C199.819 44.35 200.105 43.6319 200.247 43.2011C200.247 42.7703 200.247 42.3395 200.105 42.0522C199.677 41.3342 198.821 41.3342 198.25 41.3342H192.259L191.831 43.2011L191.831 43.201ZM198.678 35.7339C199.391 35.7339 200.104 35.7339 200.675 35.0159C200.96 34.7287 201.103 34.1543 201.103 33.8671C201.103 33.4362 201.103 33.0055 200.818 32.7182C200.39 32.1437 199.676 32.1437 199.106 32.1437H194.684C194.256 32.1437 193.971 32.1438 193.685 32.431C193.257 32.7182 193.257 33.149 193.257 33.5798L192.972 35.5903H198.678V35.7339Z" fill="#C4C4C4"/>
<path d="M213.085 51.3869C212.086 51.3869 211.088 51.3869 210.232 50.5254C209.234 49.5201 209.376 48.5148 209.519 47.3659L211.944 29.8462C212.086 28.8409 212.372 27.8357 213.37 26.9741C214.369 26.1125 215.51 25.9688 216.366 25.9688H233.627L232.771 32.1436H220.931C220.503 32.1436 219.933 32.2872 219.647 32.5744C219.22 32.8616 219.077 33.436 219.077 33.8669L218.792 35.7338H231.915L231.202 41.3345H218.078L217.65 44.063C217.507 44.6375 217.65 44.9245 217.792 45.0682C218.078 45.4991 218.791 45.3554 219.219 45.3554H230.916L230.06 51.5303H213.085V51.3865" fill="#C4C4C4"/>
<path d="M74.5711 51.8174L79.5635 36.1649L66.4395 26.6865H82.7012L87.5513 11.0332L92.5437 26.6865H108.805L95.6814 36.1641L100.674 51.8166L87.6929 42.0515L74.5696 51.8166L74.5711 51.8174ZM87.5505 37.0249L92.8286 40.9026L90.8315 34.5836L95.967 30.8498H89.5478L87.5506 24.675L85.5535 30.8498H79.1342L84.2698 34.5836L82.2728 40.9026L87.5508 37.0249" fill="#D9D9D9"/>
<path d="M16.1426 58.1387H17.2596L19.7547 64.4294H18.2257L17.672 62.8748H15.8732L15.3183 64.4294H13.9316L16.1422 58.1387H16.1426ZM17.2592 61.7595L16.9816 60.9303C16.8397 60.5221 16.8397 60.2357 16.6971 60.0856C16.6971 60.2365 16.5689 60.5221 16.4271 60.9303L16.1422 61.7595H17.2592Z" fill="#C4C4C4"/>
<path d="M21.127 58.1391H23.2105C24.4546 58.1391 25.0092 58.9683 25.0092 59.6775C25.0092 60.0849 24.7392 60.6431 24.3117 60.9304C25.0092 61.0658 25.4284 61.7595 25.4284 62.4542C25.4284 63.4489 24.7393 64.4302 23.3525 64.4302H21.1271V58.1387L21.127 58.1391ZM22.9398 60.6435C23.3517 60.6435 23.6218 60.3718 23.6218 59.949C23.6218 59.5418 23.3517 59.2554 22.9398 59.2554H22.5123V60.5218H22.9398V60.6435V60.6435ZM23.0676 63.1615C23.7644 63.1615 24.0417 62.8751 24.0417 62.4542C24.0417 62.0469 23.7644 61.7596 23.2098 61.7596H22.5123V63.1617H23.0676" fill="#C4C4C4"/>
<path d="M28.1907 59.391H26.5352V58.1387H31.5182L31.1051 59.391H29.5771V64.4302H28.1907V59.391Z" fill="#C4C4C4"/>
<path d="M32.4766 61.2162C32.4766 59.2551 33.7276 58.0176 35.5255 58.0176C37.3321 58.0176 38.5761 59.2551 38.5761 61.2162C38.5761 63.1612 37.332 64.4305 35.5255 64.4305C33.7276 64.4306 32.4766 63.1616 32.4766 61.2162ZM37.0471 61.2162C37.0471 59.8277 36.3579 59.2551 35.5257 59.2551C34.5593 59.2551 34.0052 59.9487 34.0052 61.2162C34.0052 62.5885 34.702 63.1612 35.5257 63.1612C36.3579 63.2975 37.0471 62.5885 37.0471 61.2162Z" fill="#C4C4C4"/>
<path d="M40.2325 58.139H41.8961C42.4438 58.139 42.8701 58.2744 43.2828 58.4261C43.9719 58.6825 44.2569 59.3909 44.2569 60.2353C44.2569 60.9299 43.972 61.7591 42.9979 62.1811C42.7278 62.3321 42.3152 62.3321 41.7614 62.3321H41.6196V64.4294H40.2324V58.1387L40.2325 58.139ZM41.896 61.2167C42.1741 61.2167 42.3159 61.2167 42.4437 61.0658C42.7282 60.9304 42.8705 60.6432 42.8705 60.2356C42.8705 59.9484 42.7282 59.6774 42.4437 59.391C42.3163 59.2555 42.0318 59.2555 41.7617 59.2555H41.6199V61.2167H41.8964" fill="#C4C4C4"/>
<path d="M45.9125 58.139H47.2984V61.0658C47.2984 61.3522 47.2984 61.7595 47.2984 62.0467C47.4254 61.7595 47.5685 61.4885 47.8529 61.3522L50.063 58.1395H51.4486V64.4302H50.0638V61.2159C50.0638 60.9286 50.0638 60.5222 50.0638 60.3712C49.9292 60.6432 49.652 60.9304 49.5097 61.2159L47.157 64.5493H45.913V58.1387L45.9121 58.1387" fill="#C4C4C4"/>
<path d="M53.248 64.1428V62.8753C53.6672 63.1617 54.2222 63.1617 54.7694 63.1617C55.4663 63.1617 55.8789 62.8753 55.8789 62.4545C55.8789 61.8961 55.3241 61.7589 54.7694 61.7589C54.6341 61.7589 54.3499 61.7589 53.9373 61.7589V60.6433C54.2222 60.6433 54.3491 60.6433 54.6341 60.6433C55.3231 60.6433 55.8781 60.5231 55.8781 59.9487C55.8781 59.5416 55.5932 59.2551 54.9113 59.2551C54.4911 59.2551 53.9372 59.3906 53.5254 59.6778L53.2481 58.5613C53.6672 58.2741 54.35 58.0176 55.1805 58.0176C56.7091 58.0176 57.264 58.8323 57.264 59.678C57.264 60.3718 56.8445 60.7792 56.2899 61.0656C56.979 61.2173 57.3918 61.7592 57.3918 62.4548C57.3918 63.5704 56.5679 64.4308 55.0469 64.4308C54.3494 64.4301 53.6674 64.4301 53.2482 64.1429" fill="#C4C4C4"/>
<path d="M58.7773 61.2162C58.7773 59.2551 60.0284 58.0176 61.8279 58.0176C63.6336 58.0176 64.8776 59.2551 64.8776 61.2162C64.8776 63.1612 63.6335 64.4305 61.8279 64.4305C60.0291 64.4306 58.7773 63.1616 58.7773 61.2162ZM63.3478 61.2162C63.3478 59.8277 62.6586 59.2551 61.8268 59.2551C60.8599 59.2551 60.3049 59.9487 60.3049 61.2162C60.3049 62.5885 61.0017 63.1612 61.8268 63.1612C62.6586 63.2975 63.3478 62.5885 63.3478 61.2162Z" fill="#C4C4C4"/>
<path d="M66.5315 58.1391H68.4727C69.716 58.1391 70.2707 58.9683 70.2707 59.6775C70.2707 60.0849 69.9922 60.6431 69.5811 60.9304C70.2707 61.0658 70.6825 61.7595 70.6825 62.4542C70.6825 63.4489 69.9934 64.4302 68.6147 64.4302H66.5312V58.1387L66.5315 58.1391ZM68.3292 60.6435C68.7567 60.6435 69.0267 60.3718 69.0267 59.949C69.0267 59.5418 68.7567 59.2554 68.3292 59.2554H67.9173V60.5218H68.3292V60.6435V60.6435ZM68.4727 63.1615C69.1687 63.1615 69.4387 62.8751 69.4387 62.4542C69.4387 62.0469 69.1687 61.7596 68.615 61.7596H67.9174V63.1617H68.4727" fill="#C4C4C4"/>
<path d="M74.1515 58.1387H75.2524L77.7482 64.4294H76.2197L75.6655 62.8748H73.7243L73.1781 64.4294H71.791L74.1522 58.1387H74.1515ZM75.2523 61.7595L74.9822 60.9303C74.8405 60.5221 74.8405 60.2357 74.6965 60.0856C74.6965 60.2365 74.5623 60.5221 74.4201 60.9303L74.1501 61.7595H75.2523Z" fill="#C4C4C4"/>
<path d="M79.1348 58.1387H80.5212V60.6434H83.0092V58.1387H84.387V64.4302H83.0092V61.7595H80.5212V64.4302H79.1348V58.1387Z" fill="#C4C4C4"/>
<path d="M86.3652 58.1387H87.7361V60.6434H90.2311V58.1387H91.6175V64.4302H90.2311V61.7595H87.7361V64.4302H86.3652V58.1387Z" fill="#C4C4C4"/>
<path d="M93.6934 58.1387H95.0792V60.2354H95.3564C95.9041 60.2354 96.6004 60.3708 97.0196 60.5218C97.5745 60.779 97.8433 61.3519 97.8433 62.1822C97.8433 63.2987 97.1543 64.2796 95.3565 64.2796H93.6934V58.1392V58.1387ZM95.2211 63.162C96.0448 63.162 96.3305 62.8756 96.3305 62.3326C96.3305 62.0463 96.1887 61.7599 96.0456 61.6389C95.9039 61.4871 95.4919 61.4871 95.2219 61.4871H94.9447V63.2971H95.2219V63.1617H95.2211V63.162ZM98.3983 58.139H99.7842V64.4297H98.3983V58.139Z" fill="#C4C4C4"/>
<path d="M101.726 58.1385H103.111V61.0654C103.111 61.3517 103.111 61.759 103.111 62.0463C103.246 61.759 103.381 61.488 103.658 61.3517L105.883 58.139H107.254V64.4297H105.883V61.2154C105.883 60.9282 105.883 60.5217 105.883 60.3707C105.741 60.6428 105.456 60.93 105.321 61.2154L102.968 64.5488H101.725V58.1382L101.726 58.1383L101.726 58.1385ZM102.7 56.207H103.801C103.801 56.6152 103.944 57.0227 104.499 57.0227C105.046 57.0227 105.188 56.6152 105.188 56.207H106.298C106.298 57.309 105.743 58.017 104.5 58.017C103.381 58.0171 102.699 57.1579 102.699 56.207" fill="#C4C4C4"/>
<path d="M110.994 63.1614H111.413C112.11 62.3321 112.665 60.6426 112.935 58.1387H116.262V63.1614H117.093V66.2402H115.85V64.4302H112.38V66.2402H111.136V63.1614H110.994ZM114.876 59.2554H113.909C113.624 60.7792 113.354 62.1822 112.793 63.0258H114.876V59.2554H114.876Z" fill="#C4C4C4"/>
<path d="M118.605 58.139H119.991V61.0658C119.991 61.3522 119.991 61.7595 119.991 62.0467C120.134 61.7595 120.276 61.4885 120.546 61.3522L122.764 58.1395H124.143V64.4302H122.764V61.2159C122.764 60.9286 122.764 60.5222 122.764 60.3712C122.629 60.6432 122.344 60.9304 122.202 61.2159L119.857 64.5493H118.606V58.1387L118.606 58.1387" fill="#C4C4C4"/>
<path d="M131.059 63.9926C130.37 64.4298 129.681 64.5508 129 64.5508C126.916 64.5508 125.941 63.1617 125.941 61.3522C125.941 59.5422 127.201 58.1387 129.126 58.1387C129.823 58.1387 130.37 58.2742 130.79 58.426V59.8279C130.241 59.5407 129.822 59.3906 129.268 59.3906C128.023 59.3906 127.471 60.3717 127.471 61.4881C127.471 62.5885 128.16 63.4485 129.268 63.4485C129.822 63.4485 130.369 63.2974 130.79 63.0257L131.059 63.9922" fill="#C4C4C4"/>
<path d="M133.832 59.391H132.184V58.1387H137.16L136.754 59.391H135.211V64.4302H133.832V59.391Z" fill="#C4C4C4"/>
<path d="M138.553 58.139H140.202C140.757 58.139 141.177 58.2744 141.581 58.4261C142.286 58.6825 142.557 59.3909 142.557 60.2353C142.557 60.9299 142.286 61.7591 141.311 62.1811C141.041 62.3321 140.638 62.3321 140.067 62.3321H139.933V64.4294H138.553V58.1387H138.553L138.553 58.139ZM140.067 61.2167C140.351 61.2167 140.486 61.2167 140.636 61.0658C140.889 60.9304 141.039 60.6432 141.039 60.2356C141.039 59.9484 140.889 59.6774 140.636 59.391C140.486 59.2555 140.2 59.2555 139.931 59.2555H139.782V61.2167H140.067" fill="#C4C4C4"/>
<path d="M144.232 58.1387H145.612V61.0655C145.612 61.3519 145.612 61.7591 145.612 62.0464C145.747 61.7591 145.882 61.4882 146.151 61.3519L148.369 58.1391H149.747V64.4299H148.369V61.2156C148.369 60.9283 148.369 60.5219 148.369 60.3709C148.234 60.6429 147.949 60.9301 147.829 61.2156L145.462 64.5489H144.232V58.1391" fill="#C4C4C4"/>
<path d="M151.694 58.1387H155.711L155.426 59.2552H153.088V60.3718H153.492C154.196 60.3718 154.736 60.5233 155.141 60.779C155.709 61.0654 155.995 61.6389 155.995 62.3328C155.995 63.4501 155.29 64.2794 153.491 64.2794H151.693V58.139L151.694 58.1387ZM153.494 63.1617C154.318 63.1617 154.603 62.8754 154.603 62.3324C154.603 62.046 154.468 61.7596 154.318 61.7596C154.048 61.6387 153.777 61.6387 153.494 61.6387H153.088V63.1617H153.494Z" fill="#C4C4C4"/>
<path d="M157.643 58.1387H159.022V60.2354H159.306C159.862 60.2354 160.566 60.3708 160.97 60.5218C161.51 60.779 161.944 61.3519 161.944 62.1822C161.944 63.2987 161.255 64.2796 159.442 64.2796H157.644V58.1392H157.643L157.643 58.1387ZM159.442 63.162C160.28 63.162 160.565 62.8756 160.565 62.3326C160.565 62.0463 160.415 61.7599 160.28 61.6389C159.995 61.4871 159.711 61.3518 159.306 61.3518H159.021V63.161H159.442V63.1618" fill="#C4C4C4"/>
<path d="M163.457 58.1391H164.85V60.6431H166.079C166.365 59.1192 167.339 58.1391 168.853 58.1391C170.651 58.1391 171.624 59.391 171.624 61.3518C171.624 63.2975 170.651 64.5504 168.853 64.5504C167.339 64.5504 166.23 63.4484 166.079 61.8948H164.85V64.4294H163.457V58.1387V58.1391ZM170.246 61.2167C170.246 59.8282 169.826 59.2555 168.853 59.2555C168.028 59.2555 167.475 59.9491 167.475 61.2167C167.475 62.589 167.878 63.1616 168.853 63.1616C169.826 63.298 170.246 62.589 170.246 61.2167Z" fill="#C4C4C4"/>
<path d="M174.667 59.391H173.02V58.1387H177.845L177.59 59.391H176.048V64.4302H174.667V59.391Z" fill="#C4C4C4"/>
<path d="M178.818 61.2162C178.818 59.2551 180.077 58.0176 181.876 58.0176C183.675 58.0176 184.918 59.2551 184.918 61.2162C184.918 63.1612 183.674 64.4305 181.876 64.4305C180.079 64.4306 178.818 63.1616 178.818 61.2162ZM183.523 61.2162C183.523 59.8277 182.834 59.2551 182.01 59.2551C181.035 59.2551 180.495 59.9487 180.495 61.2162C180.495 62.5885 181.184 63.1612 182.01 63.1612C182.834 63.2975 183.523 62.5885 183.523 61.2162Z" fill="#C4C4C4"/>
<path d="M186.716 58.139H188.378C188.918 58.139 189.354 58.2744 189.758 58.4261C190.461 58.6825 190.732 59.3909 190.732 60.2353C190.732 60.9299 190.463 61.7591 189.488 62.1811C189.203 62.3321 188.785 62.3321 188.243 62.3321H188.094V64.4294H186.715V58.1387H186.716V58.139ZM188.243 61.2167C188.514 61.2167 188.664 61.2167 188.783 61.0658C189.068 60.9304 189.203 60.6432 189.203 60.2356C189.203 59.9484 189.068 59.6774 188.783 59.391C188.664 59.2555 188.378 59.2555 188.094 59.2555H187.959V61.2167H188.243Z" fill="#C4C4C4"/>
<path d="M195.723 59.391H193.924V58.1387H198.884L198.631 59.391H197.086V64.4302H195.723V59.391Z" fill="#C4C4C4"/>
<path d="M200.428 58.1387H203.89L203.605 59.391H201.657V60.6434H203.605V61.895H201.657V63.1614H203.89V64.4302H200.428V58.1387Z" fill="#C4C4C4"/>
<path d="M207.336 61.2167L205.403 58.1387H206.917L208.175 60.0857L209.569 58.1387H211.081L209 61.2167L210.933 64.4302H209.419L208.175 62.3328L206.647 64.4302H205.254L207.336 61.2167Z" fill="#C4C4C4"/>
<path d="M214.395 58.1387H215.503L217.991 64.4294H216.477L215.909 62.8748H213.989L213.421 64.4294H212.057L214.395 58.1387H214.395ZM215.503 61.7595L215.234 60.9303C215.084 60.5221 215.084 60.2357 214.964 60.0856C214.964 60.2365 214.814 60.5221 214.68 60.9303L214.395 61.7595H215.503Z" fill="#C4C4C4"/>
<path d="M224.074 63.9926C223.4 64.4298 222.71 64.5508 222.02 64.5508C219.937 64.5508 218.963 63.1617 218.963 61.3522C218.963 59.5422 220.222 58.1387 222.155 58.1387C222.844 58.1387 223.4 58.2742 223.819 58.426V59.8279C223.25 59.5407 222.843 59.3906 222.274 59.3906C221.045 59.3906 220.477 60.3717 220.477 61.4881C220.477 62.5885 221.18 63.4485 222.274 63.4485C222.843 63.4485 223.399 63.2974 223.819 63.0257L224.074 63.9922" fill="#C4C4C4"/>
<path d="M225.332 61.2162C225.332 59.2551 226.577 58.0176 228.39 58.0176C230.187 58.0176 231.416 59.2551 231.416 61.2162C231.416 63.1612 230.187 64.4305 228.39 64.4305C226.577 64.4306 225.332 63.1616 225.332 61.2162ZM230.037 61.2162C230.037 59.8277 229.348 59.2551 228.524 59.2551C227.55 59.2551 226.997 59.9487 226.997 61.2162C226.997 62.5885 227.699 63.1612 228.524 63.1612C229.348 63.2975 230.037 62.5885 230.037 61.2162Z" fill="#C4C4C4"/>
</g>
<defs>
<clipPath id="clip0_765_773">
<rect width="220.536" height="69.236" fill="white" transform="translate(13.2324 4.4375)"/>
</clipPath>
</defs>
</svg>
