<svg width="185" height="69" viewBox="0 0 185 69" fill="none" xmlns="http://www.w3.org/2000/svg">
<path d="M23.1841 37.8755H16.2111L15.3395 44.5813H11.5625L15.6301 9.30273H23.9104L27.978 44.5813H24.0557L23.1841 37.8755ZM22.7483 34.231L20.424 13.2388H19.1165L16.6469 34.231H22.7483Z" fill="#C4C4C4"/>
<path d="M41.4884 20.5277C42.5052 20.5277 43.3769 20.6735 43.9579 20.9651C44.6843 21.2566 45.2654 21.694 45.7012 22.1313C46.137 22.5687 46.4275 23.1518 46.5728 23.8807C46.7181 24.6096 46.8633 25.1927 46.8633 25.9216V39.1875C46.8633 40.208 46.7181 41.0826 46.4275 41.6658C46.137 42.3946 45.7012 42.9778 45.2654 43.4151C44.8296 43.8524 44.2485 44.144 43.5221 44.2898C42.7958 44.4356 42.2147 44.5813 41.4884 44.5813H33.7891V9.30273H45.8464V13.2388H37.7113V20.5277H41.4884ZM43.0863 25.9216C43.0863 25.4842 42.9411 25.1927 42.7958 24.9011C42.5052 24.6096 42.2147 24.4638 41.6336 24.4638H37.7113V40.7911H41.4884C41.9242 40.7911 42.36 40.6453 42.6505 40.4995C42.9411 40.208 43.0863 39.9164 43.0863 39.3333V25.9216Z" fill="#C4C4C4"/>
<path d="M64.4407 37.8755H57.4677L56.5961 44.5813H52.6738L56.7414 9.30273H65.0218L69.0893 44.5813H65.167L64.4407 37.8755ZM64.0049 34.231L61.5353 13.2388H60.2279L57.9035 34.231H64.0049Z" fill="#C4C4C4"/>
<path d="M79.5485 22.5687L75.1905 9.30273H79.258L83.1803 20.8193H86.231V9.30273H90.008V20.8193H92.9134L96.6904 9.30273H100.903L96.5451 22.5687L101.194 44.5813H97.1262L92.7681 24.1722H89.8627V44.5813H85.9404V24.1722H83.035L78.6769 44.5813H74.6094L79.5485 22.5687Z" fill="#C4C4C4"/>
<path d="M148.843 40.0622C148.552 41.3742 148.117 42.3946 147.245 43.2693C146.373 44.144 145.211 44.5813 143.468 44.5813H140.708V40.6453H143.468C143.904 40.6453 144.194 40.4995 144.485 40.3537C144.775 40.208 144.921 39.9164 144.921 39.6248L146.083 33.3563H142.596L137.076 9.30273H141.144L145.357 29.4203H146.664L150.296 9.30273H154.218L148.843 40.0622Z" fill="#C4C4C4"/>
<path d="M172.667 27.9625C172.667 28.9829 172.522 29.8576 172.231 30.4407C171.941 31.1696 171.505 31.7528 171.069 32.1901C170.634 32.6274 169.907 32.919 169.326 33.0648C168.745 33.2105 168.019 33.3563 167.292 33.3563H163.661V44.5813H159.738V9.30273H167.292C168.309 9.30273 169.181 9.44851 169.762 9.74007C170.488 10.0316 171.069 10.469 171.505 10.9063C171.941 11.3436 172.231 11.9268 172.522 12.6557C172.813 13.3846 172.813 13.9677 172.813 14.6966V27.9625H172.667ZM168.745 14.6966C168.745 14.2592 168.6 13.9677 168.454 13.6761C168.309 13.3846 167.873 13.2388 167.292 13.2388H163.661V29.5661H167.292C167.728 29.5661 168.164 29.4203 168.454 29.2745C168.745 29.1287 168.89 28.6914 168.89 28.1083V14.6966H168.745Z" fill="#C4C4C4"/>
<path d="M111.508 22.5687L107.149 9.30273H111.217L115.139 20.8193H118.19V9.30273H121.967V20.8193H124.872L128.649 9.30273H132.862L128.504 22.5687L133.153 44.5813H129.085L124.727 24.1722H121.822V44.5813H117.899V24.1722H114.994L110.636 44.5813H106.568L111.508 22.5687Z" fill="#C4C4C4"/>
<path d="M41.6333 54.3477V56.8259C41.6333 57.7006 41.6333 58.5753 41.6333 59.3041C41.9239 58.721 42.3597 57.9921 42.7955 57.409L44.684 54.3477H45.4104V60.3246H44.684V57.8464C44.684 56.8259 44.684 56.2428 44.684 55.3681C44.3935 55.9512 43.9577 56.6801 43.5218 57.409L41.6333 60.3246H40.7617V54.3477H41.6333Z" fill="#C4C4C4"/>
<path d="M47.5896 54.3477V56.8259H50.495V54.3477H51.2214V60.3246H50.495V57.5548H47.5896V60.3246H46.8633V54.3477H47.5896Z" fill="#C4C4C4"/>
<path d="M53.546 55.0773H51.8027V54.4941H56.1608V55.0773H54.4176V60.3253H53.6912V55.0773H53.546Z" fill="#C4C4C4"/>
<path d="M59.9374 57.5548H57.6131V59.7415H60.2279V60.3246H56.8867V54.3477H60.0826V54.9308H57.6131V56.8259H59.9374V57.5548Z" fill="#C4C4C4"/>
<path d="M61.0996 54.4934C61.5354 54.4934 61.9712 54.3477 62.5523 54.3477C63.2787 54.3477 63.8597 54.4934 64.1503 54.785C64.4408 55.0766 64.7313 55.5139 64.7313 56.097C64.7313 56.6801 64.5861 57.1175 64.2955 57.409C63.8597 57.8464 63.2787 57.9921 62.5523 57.9921C62.2618 57.9921 62.1165 57.9921 61.9712 57.9921V60.3246H61.2449V54.4934H61.0996ZM61.9712 57.2632C62.1165 57.2632 62.407 57.2632 62.5523 57.2632C63.4239 57.2632 64.005 56.8259 64.005 55.9512C64.005 55.2223 63.4239 54.785 62.5523 54.785C62.2618 54.785 61.9712 54.785 61.826 54.785V57.2632H61.9712Z" fill="#C4C4C4"/>
<path d="M66.6189 54.3477V56.8259H69.5243V54.3477H70.2507V60.3246H69.5243V57.5548H66.6189V60.3246H65.8926V54.3477H66.6189Z" fill="#C4C4C4"/>
<path d="M74.6093 57.5548H72.2849V59.7415H74.8998V60.3246H71.5586V54.3477H74.7545V54.9308H72.2849V56.8259H74.6093V57.5548Z" fill="#C4C4C4"/>
<path d="M77.0792 55.0773H75.3359V54.4941H79.694V55.0773H77.9508V60.3253H77.2244V55.0773H77.0792Z" fill="#C4C4C4"/>
<path d="M81.4369 57.7012V58.2843H79.2578V57.7012H81.4369Z" fill="#C4C4C4"/>
<path d="M87.2485 57.7006C87.2485 56.8259 87.1032 55.8054 87.1032 55.0766C86.958 55.8054 86.6674 56.5343 86.3769 57.2632L85.36 60.1788H84.7789L83.9073 57.409C83.6168 56.5343 83.3262 55.8054 83.181 55.0766C83.181 55.8054 83.181 56.8259 83.0357 57.7006L82.8904 60.3246H82.1641L82.5999 54.3477H83.6168L84.6336 57.2632C84.9242 57.9921 85.0695 58.5753 85.2147 59.3041C85.36 58.721 85.5053 57.9921 85.7958 57.2632L86.8127 54.3477H87.8296L88.2654 60.3246H87.539L87.2485 57.7006Z" fill="#C4C4C4"/>
<path d="M90.2984 58.4295L89.5721 60.3246H88.8457L90.8795 54.3477H91.7511L93.7849 60.3246H92.9133L92.3322 58.4295H90.2984ZM92.1869 57.8464L91.6058 56.097C91.4606 55.6597 91.3153 55.3681 91.3153 55.0766C91.17 55.3681 91.17 55.8054 91.0248 56.097L90.4437 57.8464H92.1869Z" fill="#C4C4C4"/>
<path d="M97.8534 54.3477V54.9308H95.5291V60.3246H94.8027V54.3477H97.8534Z" fill="#C4C4C4"/>
<path d="M98.7242 58.4295L98.1431 60.3246H97.2715L99.3053 54.3477H100.177L102.211 60.3246H101.339L100.758 58.4295H98.7242ZM100.613 57.8464L100.032 56.097C99.8863 55.6597 99.7411 55.3681 99.7411 55.0766C99.5958 55.3681 99.5958 55.8054 99.4505 56.097L98.8694 57.8464H100.613Z" fill="#C4C4C4"/>
<path d="M102.938 54.785C103.374 54.4934 103.81 54.3477 104.536 54.3477C105.553 54.3477 106.279 54.9308 106.279 55.8054C106.279 56.5343 105.698 57.1175 105.117 57.2632C105.989 57.409 106.57 57.8464 106.57 58.721C106.57 59.8873 105.553 60.4704 104.391 60.4704C103.81 60.4704 103.229 60.3246 102.793 60.033L102.938 59.4499C103.229 59.5957 103.81 59.7415 104.246 59.7415C105.117 59.7415 105.553 59.3041 105.553 58.5753C105.553 57.7006 104.681 57.409 103.955 57.409H103.665V56.8259H103.955C104.681 56.8259 105.408 56.3886 105.408 55.8054C105.408 55.2223 104.972 54.9308 104.391 54.9308C103.955 54.9308 103.519 55.0766 103.229 55.3681L102.938 54.785Z" fill="#C4C4C4"/>
<path d="M108.313 54.3477V56.8259C108.313 57.7006 108.313 58.5753 108.313 59.3041C108.604 58.721 109.039 57.9921 109.475 57.409L111.364 54.3477H112.09V60.3246H111.364V57.8464C111.364 56.8259 111.364 56.2428 111.364 55.3681C111.073 55.9512 110.637 56.6801 110.202 57.409L108.313 60.3246H107.441V54.3477H108.313Z" fill="#C4C4C4"/>
<path d="M114.124 54.3477V56.8259H117.029V54.3477H117.755V60.3246H117.029V57.5548H114.124V60.3246H113.252V54.3477H114.124Z" fill="#C4C4C4"/>
<path d="M125.019 60.1788C124.728 60.3246 124.147 60.4704 123.421 60.4704C121.823 60.4704 120.516 59.4499 120.516 57.409C120.516 55.5139 121.823 54.3477 123.566 54.3477C124.293 54.3477 124.728 54.4934 125.019 54.6392L124.874 55.2223C124.583 55.0766 124.147 54.9308 123.712 54.9308C122.259 54.9308 121.387 55.8054 121.387 57.409C121.387 58.8668 122.259 59.7415 123.712 59.7415C124.147 59.7415 124.583 59.5957 125.019 59.4499V60.1788Z" fill="#C4C4C4"/>
<path d="M126.035 54.4934C126.326 54.4934 126.907 54.3477 127.488 54.3477C128.214 54.3477 128.795 54.4934 129.086 54.785C129.376 55.0766 129.522 55.3681 129.522 55.8054C129.522 56.3886 129.086 56.8259 128.505 57.1175C129.086 57.2632 129.667 57.7006 129.667 58.5753C129.667 59.1584 129.522 59.4499 129.231 59.7415C128.795 60.1788 128.214 60.3246 127.197 60.3246C126.616 60.3246 126.326 60.3246 126.035 60.3246V54.4934ZM126.762 56.9717H127.488C128.359 56.9717 128.795 56.5343 128.795 55.9512C128.795 55.2223 128.214 54.9308 127.488 54.9308C127.197 54.9308 126.907 54.9308 126.762 54.9308V56.9717ZM126.762 59.7415C126.907 59.7415 127.197 59.7415 127.343 59.7415C128.069 59.7415 128.795 59.4499 128.795 58.5753C128.795 57.7006 128.069 57.409 127.197 57.409H126.616V59.7415H126.762Z" fill="#C4C4C4"/>
<path d="M133.734 57.5548H131.41V59.7415H134.025V60.3246H130.684V54.3477H133.88V54.9308H131.41V56.8259H133.734V57.5548Z" fill="#C4C4C4"/>
<path d="M136.204 55.0773H134.461V54.4941H138.819V55.0773H137.076V60.3253H136.349V55.0773H136.204Z" fill="#C4C4C4"/>
<path d="M139.69 58.4295L139.109 60.3246H138.383L140.417 54.3477H141.288L143.322 60.3246H142.45L141.869 58.4295H139.69ZM141.579 57.8464L140.998 56.097C140.852 55.6597 140.707 55.3681 140.707 55.0766C140.562 55.3681 140.562 55.8054 140.417 56.097L139.836 57.8464H141.579Z" fill="#C4C4C4"/>
</svg>
