<svg width="80" height="80" viewBox="0 0 80 80" fill="none" xmlns="http://www.w3.org/2000/svg">
<path d="M40.5 72.5C40.7761 72.5 41 72.2761 41 72C41 71.7239 40.7761 71.5 40.5 71.5V72.5ZM72.6464 39.8536C72.8417 40.0488 73.1583 40.0488 73.3536 39.8536L76.5355 36.6716C76.7308 36.4763 76.7308 36.1597 76.5355 35.9645C76.3403 35.7692 76.0237 35.7692 75.8284 35.9645L73 38.7929L70.1716 35.9645C69.9763 35.7692 69.6597 35.7692 69.4645 35.9645C69.2692 36.1597 69.2692 36.4763 69.4645 36.6716L72.6464 39.8536ZM40.5 71.5C22.8269 71.5 8.5 57.1731 8.5 39.5H7.5C7.5 57.7254 22.2746 72.5 40.5 72.5V71.5ZM8.5 39.5C8.5 21.8269 22.8269 7.5 40.5 7.5V6.5C22.2746 6.5 7.5 21.2746 7.5 39.5H8.5ZM40.5 7.5C58.1731 7.5 72.5 21.8269 72.5 39.5H73.5C73.5 21.2746 58.7254 6.5 40.5 6.5V7.5Z" fill="#2D354F"/>
<path fill-rule="evenodd" clip-rule="evenodd" d="M41 68C56.464 68 69 55.464 69 40C69 24.536 56.464 12 41 12C25.536 12 13 24.536 13 40C13 55.464 25.536 68 41 68ZM48.3797 20.5538C47.81 20.3477 47.1993 20.6294 46.9869 21.1962L38.1895 44.6779C38.2617 44.7917 38.3383 44.9015 38.4189 45.007C38.8683 45.5951 39.4271 46.0256 40.0365 46.269C40.6446 46.5119 41.29 46.5636 41.9155 46.4223C41.9748 46.4089 42.0338 46.3938 42.0925 46.377L49.1232 22.0171C49.2965 21.4165 48.9659 20.7658 48.3797 20.5538ZM41.5948 47.4831C40.9428 47.5423 40.2863 47.4456 39.6655 47.1976C38.9825 46.9248 38.3674 46.4789 37.859 45.9004C37.8344 46.8259 38.3925 47.7252 39.2957 48.072C40.1503 48.4 41.0559 48.1343 41.5948 47.4831ZM40.3288 54.2212C40.0596 54.9722 39.5657 55.1625 39.0989 55.3423C38.5592 55.5501 38.0558 55.744 37.978 56.7745C37.833 58.6962 32.6328 59.0908 32.6328 59.0908C32.6328 59.0908 35.3388 57.1733 34.5377 55.4278C33.7367 53.6823 33.7571 53.5823 33.9737 52.521C34.3776 50.5419 36.1949 49.2542 38.0326 49.6448C39.8704 50.0354 41.0086 52.3249 40.3288 54.2212Z" fill="#2D354F"/>
</svg>
