<svg xmlns="http://www.w3.org/2000/svg" viewBox="0 0 36 36">
<path d="M1.5,4.5C0.7,4.5,0,5.2,0,6s0.7,1.5,1.5,1.5V4.5z M34.5,7.5C35.3,7.5,36,6.8,36,6s-0.7-1.5-1.5-1.5V7.5z M1.5,7.5h33.1v-3H1.5V7.5z"/>
<path d="M1.5,16.5C0.7,16.5,0,17.2,0,18s0.7,1.5,1.5,1.5V16.5z M34.5,19.5c0.8,0,1.5-0.7,1.5-1.5s-0.7-1.5-1.5-1.5V19.5z M1.5,19.5h33.1v-3H1.5V19.5z"/>
<path d="M1.5,28.5C0.7,28.5,0,29.2,0,30s0.7,1.5,1.5,1.5V28.5z M34.5,31.5c0.8,0,1.5-0.7,1.5-1.5s-0.7-1.5-1.5-1.5V31.5z M1.5,31.5h33.1v-3H1.5V31.5z"/>
</svg>
