<?xml version="1.0" standalone="no"?>
<!DOCTYPE svg PUBLIC "-//W3C//DTD SVG 20010904//EN"
 "http://www.w3.org/TR/2001/REC-SVG-20010904/DTD/svg10.dtd">
<svg version="1.0" xmlns="http://www.w3.org/2000/svg"
 width="700.000000pt" height="700.000000pt" viewBox="0 0 700.000000 700.000000"
 preserveAspectRatio="xMidYMid meet">
<metadata>
Created by potrace 1.14, written by Peter Selinger 2001-2017
</metadata>
<g transform="translate(0.000000,700.000000) scale(0.100000,-0.100000)"
fill="#000000" stroke="none">
<path d="M5595 6659 c-561 -104 -2007 -372 -3214 -594 -1207 -223 -2198 -408
-2202 -412 -3 -5 -38 -104 -78 -222 -58 -176 -68 -217 -58 -230 23 -30 4330
-4996 4356 -5024 l27 -28 224 51 c124 28 228 54 232 58 4 4 473 1398 1042
3097 569 1700 1038 3097 1041 3106 8 20 -307 383 -333 386 -10 0 -476 -84
-1037 -188z m-1896 -2641 c224 -703 408 -1278 411 -1278 3 0 185 576 405 1280
l399 1280 253 0 c139 0 253 -1 253 -2 0 -2 -231 -678 -513 -1503 l-513 -1500
-290 -3 -290 -2 -469 1352 c-257 744 -492 1422 -521 1506 l-54 152 262 -2 262
-3 405 -1277z"/>
</g>
</svg>
