<svg width="80" height="80" viewBox="0 0 80 80" fill="none" xmlns="http://www.w3.org/2000/svg">
<circle cx="33.5" cy="25.5" r="12" fill="#2D354F" stroke="#2D354F"/>
<circle cx="42" cy="23" r="10.5" stroke="#2D354F"/>
<path d="M53.2326 61H54C60.0751 61 65 56.0751 65 50V50C65 43.9249 60.0751 39 54 39H30C23.9249 39 19 43.9249 19 50V54.0465C19 57.8868 22.1132 61 25.9535 61V61H30.7674H36.6512H40.9302" stroke="#2D354F"/>
<path d="M8 55C8 48.3726 13.3726 43 20 43H45C51.6274 43 57 48.3726 57 55C57 61.6274 51.6274 67 45 67H20C13.3726 67 8 61.6274 8 55Z" fill="#2D354F"/>
<path fill-rule="evenodd" clip-rule="evenodd" d="M71 30.5C71 34.6421 67.6421 38 63.5 38C59.3579 38 56 34.6421 56 30.5C56 26.3579 59.3579 23 63.5 23C67.6421 23 71 26.3579 71 30.5ZM64 26.5C64.2761 26.5 64.5 26.7239 64.5 27V30.5H68C68.2761 30.5 68.5 30.7239 68.5 31C68.5 31.2761 68.2761 31.5 68 31.5H64.5V35C64.5 35.2761 64.2761 35.5 64 35.5C63.7239 35.5 63.5 35.2761 63.5 35V31.5H60C59.7239 31.5 59.5 31.2761 59.5 31C59.5 30.7239 59.7239 30.5 60 30.5H63.5V27C63.5 26.7239 63.7239 26.5 64 26.5Z" fill="#2D354F"/>
</svg>
