<svg width="80" height="80" viewBox="0 0 80 80" fill="none" xmlns="http://www.w3.org/2000/svg">
<path fill-rule="evenodd" clip-rule="evenodd" d="M39.8714 12.1404C40.7555 12.0475 41.6524 12 42.56 12C57.127 12 69 24.2761 69 39.5C69 50.0847 63.2606 59.2445 54.8668 63.8441C61.6444 58.5357 66 50.2765 66 41C66 25.9527 54.5397 13.5821 39.8714 12.1404ZM30.6748 12.6918C34.2909 10.9643 38.3172 10 42.56 10C58.3024 10 71 23.2437 71 39.5C71 54.9262 59.566 67.6396 44.9465 68.8978C42.4212 69.6157 39.7555 70 37 70C20.9837 70 8 57.0163 8 41C8 27.1562 17.7004 15.5781 30.6748 12.6918ZM61.0314 43.7888L61.2495 43.1303L60.5558 43.1316L53.5586 43.1449C53.2824 43.1454 53.059 43.3697 53.0595 43.6458C53.0601 43.922 53.2843 44.1454 53.5605 44.1449L59.0006 44.1346L44.0398 54.8896L39.4546 48.8947L39.163 48.5135L38.7702 48.7893L20.9583 61.2953C20.7323 61.454 20.6777 61.7658 20.8364 61.9918C20.995 62.2178 21.3069 62.2724 21.5329 62.1137L38.9519 49.8835L43.5404 55.8827L43.8353 56.2682L44.2294 55.9849L59.5979 44.9367L57.965 49.8681C57.8782 50.1303 58.0203 50.4132 58.2825 50.5C58.5446 50.5868 58.8275 50.4446 58.9143 50.1825L61.0314 43.7888ZM37.4103 36.3304H34.4916V38.504H41.478V40.8328H34.4916V44H30.7033V40.8328H28.064V38.504H30.7033V36.3304H28.064V33.66H30.7033V22.047H37.9693C40.6396 22.047 42.6683 22.6473 44.0552 23.848C45.4422 25.0486 46.1356 26.8082 46.1356 29.1266C46.1356 33.9292 43.2272 36.3304 37.4103 36.3304ZM34.4916 25.3695V33.66H37.193C40.5258 33.66 42.1922 32.2628 42.1922 29.4682C42.1922 26.7357 40.681 25.3695 37.6587 25.3695H34.4916Z" fill="#2D354F"/>
</svg>
