<svg width="121" height="40" viewBox="0 0 121 40" fill="none" xmlns="http://www.w3.org/2000/svg">
<path fill-rule="evenodd" clip-rule="evenodd" d="M39.0623 1.03997C39.6425 1.69861 39.8265 2.61709 39.5447 3.44839L28.4481 36.1902C28.1784 36.986 27.5037 37.5769 26.6793 37.7394C25.8612 37.9007 25.019 37.6158 24.4669 36.991L0.892501 10.316C0.341796 9.69285 0.17253 8.81999 0.450399 8.03618C0.724284 7.2636 1.3905 6.69655 2.19691 6.54962L36.7823 0.248268C37.6285 0.0940832 38.4937 0.394501 39.0623 1.03997ZM29.0001 7.9998L23.1946 24.9998H19.9016L14.0001 7.9998H16.9676L21.5794 22.5748L26.1287 7.9998H29.0001Z" fill="#2D354F"/>
<path d="M36.4973 16.431C36.5182 16.4394 36.5391 16.4519 36.56 16.4645C37.2042 16.778 37.9739 17.0498 38.8774 17.2881C42.2406 18.1911 43.1149 18.8391 43.1149 20.7121C43.1149 22.2966 41.5964 23.3626 39.3334 23.3626C37.5598 23.3626 34.8324 21.8409 34.8324 21.8409C34.8324 21.8409 34.0167 24.0775 34 24.065C35.3637 24.9597 37.1038 25.5575 39.3961 25.5575C42.8221 25.5575 45.9594 23.9103 45.9594 20.4529C45.9594 17.4804 43.9557 16.1216 40.3666 15.1852C38.9653 14.8131 38.0199 14.4703 37.4259 14.0355C37.4092 14.0229 37.3883 14.0104 37.3715 13.9937C37.3715 13.9978 36.5266 16.477 36.4973 16.431ZM115.055 21.8785V1L112.34 1.32192V21.9078C112.34 24.3326 113.537 25.5617 115.607 25.5617C116.448 25.5617 117.255 25.3694 118 25.014L117.289 23.1076C116.967 23.2372 116.611 23.2999 116.189 23.2999C115.348 23.2999 115.055 22.815 115.055 21.8785ZM99.3436 23.4922C97.3064 23.4922 96.2397 22.3593 96.2397 20.294C96.2397 17.8692 97.9213 16.6735 101.092 16.6735H103.518V20.7121C102.544 22.5558 101.184 23.4922 99.3436 23.4922ZM106.229 21.2639V13.3791C106.229 9.85475 104.384 7.78948 100.343 7.78948C98.4693 7.78948 96.6246 8.17829 94.5874 8.95172L95.2651 10.9543C97.0094 10.3397 98.5655 10.0178 99.8581 10.0178C102.314 10.0178 103.51 10.9877 103.51 13.5087V14.834H100.728C96.0724 14.834 93.3576 16.8031 93.3576 20.4236C93.3576 23.463 95.3613 25.5617 98.7245 25.5617C100.824 25.5617 102.636 24.7548 103.832 22.9446C104.284 24.6587 105.35 25.3359 106.999 25.5617L107.647 23.6553C106.748 23.3334 106.229 22.8484 106.229 21.2639ZM83.9499 7.7853C81.6534 7.7853 79.8756 8.98098 78.6165 10.7243L78.3906 8.16993H76.0607V25.1687H78.7755V13.053C79.9383 11.18 81.2978 9.91746 83.3015 9.91746C85.0459 9.91746 86.1125 10.7578 86.1125 13.3749V25.1687H88.8273V12.9903C88.8357 9.7586 87.0579 7.7853 83.9499 7.7853ZM64.3272 9.7586C66.8496 9.7586 68.1087 11.1466 68.1087 13.6676C68.1087 16.1885 66.8161 17.6434 64.3899 17.6434C61.9972 17.6434 60.6377 16.0589 60.6377 13.6676C60.6377 11.4058 61.901 9.7586 64.3272 9.7586ZM72.8313 8.85556L72.024 6.36804C70.1165 7.24181 68.6274 7.88564 64.3272 7.78948C60.575 7.78948 57.8602 10.2143 57.8602 13.6717C57.8602 15.9001 58.7637 17.3884 60.7046 18.421C59.5083 19.1987 58.8599 20.2647 58.8599 21.3935C58.8599 23.0742 60.2194 24.5625 63.1936 24.5625H65.8791C68.0794 24.5625 69.4054 25.4028 69.4054 27.0835C69.4054 28.8603 68.0794 29.8637 64.3272 29.8637C60.5122 29.8637 59.5418 28.9564 59.5418 26.9246H57.0821C57.0821 30.3486 58.8599 32 64.3272 32C69.5351 32 72.1537 30.1563 72.1537 26.8953C72.1537 24.2448 69.8906 22.2757 66.4313 22.2757H63.7164C61.9052 22.2757 61.3865 21.6276 61.3865 20.8208C61.3865 20.1435 61.742 19.5289 62.3235 19.1401C63.0011 19.3659 63.7123 19.462 64.4903 19.462C68.4977 19.462 70.8904 17.0707 70.8904 13.7428C70.8904 11.6734 69.8865 10.2519 67.9162 9.38233C69.8865 9.34053 71.4718 9.27363 72.8313 8.85556ZM53.0747 8.17411H50.3599V25.1729H53.0747V8.17411ZM38.6683 10.0847C39.0364 9.9969 39.4422 9.95509 39.8814 9.95509C41.5002 9.95509 42.7928 10.4401 44.2778 11.5396L45.4741 9.72933C43.8595 8.5002 42.1109 7.78948 39.7852 7.78948C39.668 7.78948 39.5551 7.79366 39.4422 7.79784C39.4422 7.79366 38.6725 10.0847 38.6683 10.0847Z" fill="#2D354F"/>
</svg>
